<?xml version="1.0" standalone="no"?>
<!DOCTYPE svg PUBLIC "-//W3C//DTD SVG 1.1//EN" 
  "http://www.w3.org/Graphics/SVG/1.1/DTD/svg11.dtd">
<svg width="512" height="512" viewBox="0 0 512 512"
     xmlns="http://www.w3.org/2000/svg" version="1.1">
<desc>pattern.blend, (Blender 2.80 (sub 75))</desc>
<polygon stroke="black" stroke-width="1" fill="rgb(204, 204, 204)" fill-opacity="0" points="51.191,413.157 82.657,388.511 54.267,339.130 " />
<polygon stroke="black" stroke-width="1" fill="rgb(204, 204, 204)" fill-opacity="0" points="51.191,413.157 54.267,339.130 17.494,354.793 " />
<polygon stroke="black" stroke-width="1" fill="rgb(204, 204, 204)" fill-opacity="0" points="17.494,354.793 54.267,339.130 39.626,284.085 " />
<polygon stroke="black" stroke-width="1" fill="rgb(204, 204, 204)" fill-opacity="0" points="17.494,354.793 39.626,284.085 0.051,289.696 " />
<polygon stroke="black" stroke-width="1" fill="rgb(204, 204, 204)" fill-opacity="0" points="0.051,289.696 39.626,284.085 39.730,227.126 " />
<polygon stroke="black" stroke-width="1" fill="rgb(204, 204, 204)" fill-opacity="0" points="0.051,289.696 39.730,227.126 0.053,222.303 " />
<polygon stroke="black" stroke-width="1" fill="rgb(204, 204, 204)" fill-opacity="0" points="0.053,222.303 39.730,227.126 54.574,172.135 " />
<polygon stroke="black" stroke-width="1" fill="rgb(204, 204, 204)" fill-opacity="0" points="0.053,222.303 54.574,172.135 17.497,157.208 " />
<polygon stroke="black" stroke-width="1" fill="rgb(204, 204, 204)" fill-opacity="0" points="17.497,157.208 54.574,172.135 83.143,122.861 " />
<polygon stroke="black" stroke-width="1" fill="rgb(204, 204, 204)" fill-opacity="0" points="17.497,157.208 83.143,122.861 51.193,98.845 " />
<polygon stroke="black" stroke-width="1" fill="rgb(204, 204, 204)" fill-opacity="0" points="51.193,98.845 83.143,122.861 123.492,82.659 " />
<polygon stroke="black" stroke-width="1" fill="rgb(204, 204, 204)" fill-opacity="0" points="51.193,98.845 123.492,82.659 98.847,51.193 " />
<polygon stroke="black" stroke-width="1" fill="rgb(204, 204, 204)" fill-opacity="0" points="98.847,51.193 123.492,82.659 172.872,54.270 " />
<polygon stroke="black" stroke-width="1" fill="rgb(204, 204, 204)" fill-opacity="0" points="98.847,51.193 172.872,54.270 157.210,17.498 " />
<polygon stroke="black" stroke-width="1" fill="rgb(204, 204, 204)" fill-opacity="0" points="157.210,17.498 172.872,54.270 227.916,39.629 " />
<polygon stroke="black" stroke-width="1" fill="rgb(204, 204, 204)" fill-opacity="0" points="157.210,17.498 227.916,39.629 222.304,0.056 " />
<polygon stroke="black" stroke-width="1" fill="rgb(204, 204, 204)" fill-opacity="0" points="222.304,0.056 227.916,39.629 284.873,39.733 " />
<polygon stroke="black" stroke-width="1" fill="rgb(204, 204, 204)" fill-opacity="0" points="222.304,0.056 284.873,39.733 289.695,0.056 " />
<polygon stroke="black" stroke-width="1" fill="rgb(204, 204, 204)" fill-opacity="0" points="289.695,0.056 284.873,39.733 339.864,54.574 " />
<polygon stroke="black" stroke-width="1" fill="rgb(204, 204, 204)" fill-opacity="0" points="289.695,0.056 339.864,54.574 354.790,17.497 " />
<polygon stroke="black" stroke-width="1" fill="rgb(204, 204, 204)" fill-opacity="0" points="354.790,17.497 339.864,54.574 389.139,83.143 " />
<polygon stroke="black" stroke-width="1" fill="rgb(204, 204, 204)" fill-opacity="0" points="354.790,17.497 389.139,83.143 413.153,51.192 " />
<polygon stroke="black" stroke-width="1" fill="rgb(204, 204, 204)" fill-opacity="0" points="413.153,51.192 389.139,83.143 429.342,123.491 " />
<polygon stroke="black" stroke-width="1" fill="rgb(204, 204, 204)" fill-opacity="0" points="413.153,51.192 429.342,123.491 460.807,98.844 " />
<polygon stroke="black" stroke-width="1" fill="rgb(204, 204, 204)" fill-opacity="0" points="460.807,98.844 429.342,123.491 457.732,172.870 " />
<polygon stroke="black" stroke-width="1" fill="rgb(204, 204, 204)" fill-opacity="0" points="460.807,98.844 457.732,172.870 494.504,157.207 " />
<polygon stroke="black" stroke-width="1" fill="rgb(204, 204, 204)" fill-opacity="0" points="494.504,157.207 457.732,172.870 472.374,227.915 " />
<polygon stroke="black" stroke-width="1" fill="rgb(204, 204, 204)" fill-opacity="0" points="494.504,157.207 472.374,227.915 511.948,222.303 " />
<polygon stroke="black" stroke-width="1" fill="rgb(204, 204, 204)" fill-opacity="0" points="511.948,222.303 472.374,227.915 472.271,284.874 " />
<polygon stroke="black" stroke-width="1" fill="rgb(204, 204, 204)" fill-opacity="0" points="511.948,222.303 472.271,284.874 511.949,289.696 " />
<polygon stroke="black" stroke-width="1" fill="rgb(204, 204, 204)" fill-opacity="0" points="511.949,289.696 472.271,284.874 457.428,339.865 " />
<polygon stroke="black" stroke-width="1" fill="rgb(204, 204, 204)" fill-opacity="0" points="511.949,289.696 457.428,339.865 494.507,354.792 " />
<polygon stroke="black" stroke-width="1" fill="rgb(204, 204, 204)" fill-opacity="0" points="494.507,354.792 457.428,339.865 428.859,389.141 " />
<polygon stroke="black" stroke-width="1" fill="rgb(204, 204, 204)" fill-opacity="0" points="494.507,354.792 428.859,389.141 460.810,413.156 " />
<polygon stroke="black" stroke-width="1" fill="rgb(204, 204, 204)" fill-opacity="0" points="460.810,413.156 428.859,389.141 388.510,429.344 " />
<polygon stroke="black" stroke-width="1" fill="rgb(204, 204, 204)" fill-opacity="0" points="460.810,413.156 388.510,429.344 413.156,460.810 " />
<polygon stroke="black" stroke-width="1" fill="rgb(204, 204, 204)" fill-opacity="0" points="413.156,460.810 388.510,429.344 339.130,457.733 " />
<polygon stroke="black" stroke-width="1" fill="rgb(204, 204, 204)" fill-opacity="0" points="413.156,460.810 339.130,457.733 354.793,494.505 " />
<polygon stroke="black" stroke-width="1" fill="rgb(204, 204, 204)" fill-opacity="0" points="354.793,494.505 339.130,457.733 284.086,472.375 " />
<polygon stroke="black" stroke-width="1" fill="rgb(204, 204, 204)" fill-opacity="0" points="354.793,494.505 284.086,472.375 289.697,511.948 " />
<polygon stroke="black" stroke-width="1" fill="rgb(204, 204, 204)" fill-opacity="0" points="289.697,511.948 284.086,472.375 227.127,472.271 " />
<polygon stroke="black" stroke-width="1" fill="rgb(204, 204, 204)" fill-opacity="0" points="289.697,511.948 227.127,472.271 222.305,511.949 " />
<polygon stroke="black" stroke-width="1" fill="rgb(204, 204, 204)" fill-opacity="0" points="222.305,511.949 227.127,472.271 172.136,457.429 " />
<polygon stroke="black" stroke-width="1" fill="rgb(204, 204, 204)" fill-opacity="0" points="222.305,511.949 172.136,457.429 157.209,494.507 " />
<polygon stroke="black" stroke-width="1" fill="rgb(204, 204, 204)" fill-opacity="0" points="82.657,388.511 51.191,413.157 98.845,460.811 " />
<polygon stroke="black" stroke-width="1" fill="rgb(204, 204, 204)" fill-opacity="0" points="82.657,388.511 98.845,460.811 122.860,428.860 " />
<polygon stroke="black" stroke-width="1" fill="rgb(204, 204, 204)" fill-opacity="0" points="157.209,494.507 172.136,457.429 122.860,428.860 " />
<polygon stroke="black" stroke-width="1" fill="rgb(204, 204, 204)" fill-opacity="0" points="157.209,494.507 122.860,428.860 98.845,460.811 " />
<polygon stroke="black" stroke-width="1" fill="rgb(204, 204, 204)" fill-opacity="0" points="428.859,389.141 457.428,339.865 410.590,320.010 " />
<polygon stroke="black" stroke-width="1" fill="rgb(204, 204, 204)" fill-opacity="0" points="428.859,389.141 410.590,320.010 388.755,357.839 " />
<polygon stroke="black" stroke-width="1" fill="rgb(204, 204, 204)" fill-opacity="0" points="123.492,82.659 83.143,122.861 123.247,154.162 " />
<polygon stroke="black" stroke-width="1" fill="rgb(204, 204, 204)" fill-opacity="0" points="123.492,82.659 123.247,154.162 154.128,123.273 " />
<polygon stroke="black" stroke-width="1" fill="rgb(204, 204, 204)" fill-opacity="0" points="284.086,472.375 339.130,457.733 320.050,410.573 " />
<polygon stroke="black" stroke-width="1" fill="rgb(204, 204, 204)" fill-opacity="0" points="284.086,472.375 320.050,410.573 277.861,421.883 " />
<polygon stroke="black" stroke-width="1" fill="rgb(204, 204, 204)" fill-opacity="0" points="284.873,39.733 227.916,39.629 234.140,90.119 " />
<polygon stroke="black" stroke-width="1" fill="rgb(204, 204, 204)" fill-opacity="0" points="284.873,39.733 234.140,90.119 277.817,90.114 " />
<polygon stroke="black" stroke-width="1" fill="rgb(204, 204, 204)" fill-opacity="0" points="122.860,428.860 172.136,457.429 191.991,410.590 " />
<polygon stroke="black" stroke-width="1" fill="rgb(204, 204, 204)" fill-opacity="0" points="122.860,428.860 191.991,410.590 154.162,388.756 " />
<polygon stroke="black" stroke-width="1" fill="rgb(204, 204, 204)" fill-opacity="0" points="429.342,123.491 389.139,83.143 357.838,123.247 " />
<polygon stroke="black" stroke-width="1" fill="rgb(204, 204, 204)" fill-opacity="0" points="429.342,123.491 357.838,123.247 388.728,154.127 " />
<polygon stroke="black" stroke-width="1" fill="rgb(204, 204, 204)" fill-opacity="0" points="54.574,172.135 39.730,227.126 90.112,234.183 " />
<polygon stroke="black" stroke-width="1" fill="rgb(204, 204, 204)" fill-opacity="0" points="54.574,172.135 90.112,234.183 101.412,191.991 " />
<polygon stroke="black" stroke-width="1" fill="rgb(204, 204, 204)" fill-opacity="0" points="472.271,284.874 472.374,227.915 421.883,234.139 " />
<polygon stroke="black" stroke-width="1" fill="rgb(204, 204, 204)" fill-opacity="0" points="472.271,284.874 421.883,234.139 421.889,277.818 " />
<polygon stroke="black" stroke-width="1" fill="rgb(204, 204, 204)" fill-opacity="0" points="388.510,429.344 428.859,389.141 388.755,357.839 " />
<polygon stroke="black" stroke-width="1" fill="rgb(204, 204, 204)" fill-opacity="0" points="388.510,429.344 388.755,357.839 357.874,388.729 " />
<polygon stroke="black" stroke-width="1" fill="rgb(204, 204, 204)" fill-opacity="0" points="172.872,54.270 123.492,82.659 154.128,123.273 " />
<polygon stroke="black" stroke-width="1" fill="rgb(204, 204, 204)" fill-opacity="0" points="172.872,54.270 154.128,123.273 191.951,101.429 " />
<polygon stroke="black" stroke-width="1" fill="rgb(204, 204, 204)" fill-opacity="0" points="227.127,472.271 284.086,472.375 277.861,421.883 " />
<polygon stroke="black" stroke-width="1" fill="rgb(204, 204, 204)" fill-opacity="0" points="227.127,472.271 277.861,421.883 234.183,421.890 " />
<polygon stroke="black" stroke-width="1" fill="rgb(204, 204, 204)" fill-opacity="0" points="339.864,54.574 284.873,39.733 277.817,90.114 " />
<polygon stroke="black" stroke-width="1" fill="rgb(204, 204, 204)" fill-opacity="0" points="339.864,54.574 277.817,90.114 320.009,101.412 " />
<polygon stroke="black" stroke-width="1" fill="rgb(204, 204, 204)" fill-opacity="0" points="82.657,388.511 122.860,428.860 154.162,388.756 " />
<polygon stroke="black" stroke-width="1" fill="rgb(204, 204, 204)" fill-opacity="0" points="82.657,388.511 154.162,388.756 123.272,357.875 " />
<polygon stroke="black" stroke-width="1" fill="rgb(204, 204, 204)" fill-opacity="0" points="39.626,284.085 54.267,339.130 101.428,320.050 " />
<polygon stroke="black" stroke-width="1" fill="rgb(204, 204, 204)" fill-opacity="0" points="39.626,284.085 101.428,320.050 90.118,277.861 " />
<polygon stroke="black" stroke-width="1" fill="rgb(204, 204, 204)" fill-opacity="0" points="457.732,172.870 429.342,123.491 388.728,154.127 " />
<polygon stroke="black" stroke-width="1" fill="rgb(204, 204, 204)" fill-opacity="0" points="457.732,172.870 388.728,154.127 410.572,191.951 " />
<polygon stroke="black" stroke-width="1" fill="rgb(204, 204, 204)" fill-opacity="0" points="83.143,122.861 54.574,172.135 101.412,191.991 " />
<polygon stroke="black" stroke-width="1" fill="rgb(204, 204, 204)" fill-opacity="0" points="83.143,122.861 101.412,191.991 123.247,154.162 " />
<polygon stroke="black" stroke-width="1" fill="rgb(204, 204, 204)" fill-opacity="0" points="457.428,339.865 472.271,284.874 421.889,277.818 " />
<polygon stroke="black" stroke-width="1" fill="rgb(204, 204, 204)" fill-opacity="0" points="457.428,339.865 421.889,277.818 410.590,320.010 " />
<polygon stroke="black" stroke-width="1" fill="rgb(204, 204, 204)" fill-opacity="0" points="339.130,457.733 388.510,429.344 357.874,388.729 " />
<polygon stroke="black" stroke-width="1" fill="rgb(204, 204, 204)" fill-opacity="0" points="339.130,457.733 357.874,388.729 320.050,410.573 " />
<polygon stroke="black" stroke-width="1" fill="rgb(204, 204, 204)" fill-opacity="0" points="54.267,339.130 82.657,388.511 123.272,357.875 " />
<polygon stroke="black" stroke-width="1" fill="rgb(204, 204, 204)" fill-opacity="0" points="54.267,339.130 123.272,357.875 101.428,320.050 " />
<polygon stroke="black" stroke-width="1" fill="rgb(204, 204, 204)" fill-opacity="0" points="227.916,39.629 172.872,54.270 191.951,101.429 " />
<polygon stroke="black" stroke-width="1" fill="rgb(204, 204, 204)" fill-opacity="0" points="227.916,39.629 191.951,101.429 234.140,90.119 " />
<polygon stroke="black" stroke-width="1" fill="rgb(204, 204, 204)" fill-opacity="0" points="172.136,457.429 227.127,472.271 234.183,421.890 " />
<polygon stroke="black" stroke-width="1" fill="rgb(204, 204, 204)" fill-opacity="0" points="172.136,457.429 234.183,421.890 191.991,410.590 " />
<polygon stroke="black" stroke-width="1" fill="rgb(204, 204, 204)" fill-opacity="0" points="389.139,83.143 339.864,54.574 320.009,101.412 " />
<polygon stroke="black" stroke-width="1" fill="rgb(204, 204, 204)" fill-opacity="0" points="389.139,83.143 320.009,101.412 357.838,123.247 " />
<polygon stroke="black" stroke-width="1" fill="rgb(204, 204, 204)" fill-opacity="0" points="39.730,227.126 39.626,284.085 90.118,277.861 " />
<polygon stroke="black" stroke-width="1" fill="rgb(204, 204, 204)" fill-opacity="0" points="39.730,227.126 90.118,277.861 90.112,234.183 " />
<polygon stroke="black" stroke-width="1" fill="rgb(204, 204, 204)" fill-opacity="0" points="472.374,227.915 457.732,172.870 410.572,191.951 " />
<polygon stroke="black" stroke-width="1" fill="rgb(204, 204, 204)" fill-opacity="0" points="472.374,227.915 410.572,191.951 421.883,234.139 " />
<polygon stroke="black" stroke-width="1" fill="rgb(204, 204, 204)" fill-opacity="0" points="277.861,421.883 320.050,410.573 284.976,325.749 " />
<polygon stroke="black" stroke-width="1" fill="rgb(204, 204, 204)" fill-opacity="0" points="277.861,421.883 284.976,325.749 265.936,330.872 " />
<polygon stroke="black" stroke-width="1" fill="rgb(204, 204, 204)" fill-opacity="0" points="277.817,90.114 234.140,90.119 246.064,181.130 " />
<polygon stroke="black" stroke-width="1" fill="rgb(204, 204, 204)" fill-opacity="0" points="277.817,90.114 246.064,181.130 265.781,181.110 " />
<polygon stroke="black" stroke-width="1" fill="rgb(204, 204, 204)" fill-opacity="0" points="357.874,388.729 388.755,357.839 315.968,301.917 " />
<polygon stroke="black" stroke-width="1" fill="rgb(204, 204, 204)" fill-opacity="0" points="357.874,388.729 315.968,301.917 302.041,315.873 " />
<polygon stroke="black" stroke-width="1" fill="rgb(204, 204, 204)" fill-opacity="0" points="191.951,101.429 154.128,123.273 209.960,196.129 " />
<polygon stroke="black" stroke-width="1" fill="rgb(204, 204, 204)" fill-opacity="0" points="191.951,101.429 209.960,196.129 227.025,186.253 " />
<polygon stroke="black" stroke-width="1" fill="rgb(204, 204, 204)" fill-opacity="0" points="123.247,154.162 101.412,191.991 186.192,227.171 " />
<polygon stroke="black" stroke-width="1" fill="rgb(204, 204, 204)" fill-opacity="0" points="123.247,154.162 186.192,227.171 196.033,210.085 " />
<polygon stroke="black" stroke-width="1" fill="rgb(204, 204, 204)" fill-opacity="0" points="410.590,320.010 421.889,277.818 330.892,265.781 " />
<polygon stroke="black" stroke-width="1" fill="rgb(204, 204, 204)" fill-opacity="0" points="410.590,320.010 330.892,265.781 325.809,284.831 " />
<polygon stroke="black" stroke-width="1" fill="rgb(204, 204, 204)" fill-opacity="0" points="90.118,277.861 101.428,320.050 186.253,284.977 " />
<polygon stroke="black" stroke-width="1" fill="rgb(204, 204, 204)" fill-opacity="0" points="90.118,277.861 186.253,284.977 181.130,265.937 " />
<polygon stroke="black" stroke-width="1" fill="rgb(204, 204, 204)" fill-opacity="0" points="421.883,234.139 410.572,191.951 325.748,227.025 " />
<polygon stroke="black" stroke-width="1" fill="rgb(204, 204, 204)" fill-opacity="0" points="421.883,234.139 325.748,227.025 330.871,246.065 " />
<polygon stroke="black" stroke-width="1" fill="rgb(204, 204, 204)" fill-opacity="0" points="154.162,388.756 191.991,410.590 227.170,325.809 " />
<polygon stroke="black" stroke-width="1" fill="rgb(204, 204, 204)" fill-opacity="0" points="154.162,388.756 227.170,325.809 210.085,315.969 " />
<polygon stroke="black" stroke-width="1" fill="rgb(204, 204, 204)" fill-opacity="0" points="90.112,234.183 90.118,277.861 181.130,265.937 " />
<polygon stroke="black" stroke-width="1" fill="rgb(204, 204, 204)" fill-opacity="0" points="90.112,234.183 181.130,265.937 181.109,246.221 " />
<polygon stroke="black" stroke-width="1" fill="rgb(204, 204, 204)" fill-opacity="0" points="388.728,154.127 357.838,123.247 301.916,196.034 " />
<polygon stroke="black" stroke-width="1" fill="rgb(204, 204, 204)" fill-opacity="0" points="388.728,154.127 301.916,196.034 315.872,209.960 " />
<polygon stroke="black" stroke-width="1" fill="rgb(204, 204, 204)" fill-opacity="0" points="234.183,421.890 277.861,421.883 265.936,330.872 " />
<polygon stroke="black" stroke-width="1" fill="rgb(204, 204, 204)" fill-opacity="0" points="234.183,421.890 265.936,330.872 246.220,330.892 " />
<polygon stroke="black" stroke-width="1" fill="rgb(204, 204, 204)" fill-opacity="0" points="320.009,101.412 277.817,90.114 265.781,181.110 " />
<polygon stroke="black" stroke-width="1" fill="rgb(204, 204, 204)" fill-opacity="0" points="320.009,101.412 265.781,181.110 284.831,186.193 " />
<polygon stroke="black" stroke-width="1" fill="rgb(204, 204, 204)" fill-opacity="0" points="320.050,410.573 357.874,388.729 302.041,315.873 " />
<polygon stroke="black" stroke-width="1" fill="rgb(204, 204, 204)" fill-opacity="0" points="320.050,410.573 302.041,315.873 284.976,325.749 " />
<polygon stroke="black" stroke-width="1" fill="rgb(204, 204, 204)" fill-opacity="0" points="234.140,90.119 191.951,101.429 227.025,186.253 " />
<polygon stroke="black" stroke-width="1" fill="rgb(204, 204, 204)" fill-opacity="0" points="234.140,90.119 227.025,186.253 246.064,181.130 " />
<polygon stroke="black" stroke-width="1" fill="rgb(204, 204, 204)" fill-opacity="0" points="388.755,357.839 410.590,320.010 325.809,284.831 " />
<polygon stroke="black" stroke-width="1" fill="rgb(204, 204, 204)" fill-opacity="0" points="388.755,357.839 325.809,284.831 315.968,301.917 " />
<polygon stroke="black" stroke-width="1" fill="rgb(204, 204, 204)" fill-opacity="0" points="154.128,123.273 123.247,154.162 196.033,210.085 " />
<polygon stroke="black" stroke-width="1" fill="rgb(204, 204, 204)" fill-opacity="0" points="154.128,123.273 196.033,210.085 209.960,196.129 " />
<polygon stroke="black" stroke-width="1" fill="rgb(204, 204, 204)" fill-opacity="0" points="101.412,191.991 90.112,234.183 181.109,246.221 " />
<polygon stroke="black" stroke-width="1" fill="rgb(204, 204, 204)" fill-opacity="0" points="101.412,191.991 181.109,246.221 186.192,227.171 " />
<polygon stroke="black" stroke-width="1" fill="rgb(204, 204, 204)" fill-opacity="0" points="421.889,277.818 421.883,234.139 330.871,246.065 " />
<polygon stroke="black" stroke-width="1" fill="rgb(204, 204, 204)" fill-opacity="0" points="421.889,277.818 330.871,246.065 330.892,265.781 " />
<polygon stroke="black" stroke-width="1" fill="rgb(204, 204, 204)" fill-opacity="0" points="123.272,357.875 154.162,388.756 210.085,315.969 " />
<polygon stroke="black" stroke-width="1" fill="rgb(204, 204, 204)" fill-opacity="0" points="123.272,357.875 210.085,315.969 196.129,302.041 " />
<polygon stroke="black" stroke-width="1" fill="rgb(204, 204, 204)" fill-opacity="0" points="101.428,320.050 123.272,357.875 196.129,302.041 " />
<polygon stroke="black" stroke-width="1" fill="rgb(204, 204, 204)" fill-opacity="0" points="101.428,320.050 196.129,302.041 186.253,284.977 " />
<polygon stroke="black" stroke-width="1" fill="rgb(204, 204, 204)" fill-opacity="0" points="410.572,191.951 388.728,154.127 315.872,209.960 " />
<polygon stroke="black" stroke-width="1" fill="rgb(204, 204, 204)" fill-opacity="0" points="410.572,191.951 315.872,209.960 325.748,227.025 " />
<polygon stroke="black" stroke-width="1" fill="rgb(204, 204, 204)" fill-opacity="0" points="191.991,410.590 234.183,421.890 246.220,330.892 " />
<polygon stroke="black" stroke-width="1" fill="rgb(204, 204, 204)" fill-opacity="0" points="191.991,410.590 246.220,330.892 227.170,325.809 " />
<polygon stroke="black" stroke-width="1" fill="rgb(204, 204, 204)" fill-opacity="0" points="357.838,123.247 320.009,101.412 284.831,186.193 " />
<polygon stroke="black" stroke-width="1" fill="rgb(204, 204, 204)" fill-opacity="0" points="357.838,123.247 284.831,186.193 301.916,196.034 " />
<polygon stroke="black" stroke-width="1" fill="rgb(204, 204, 204)" fill-opacity="0" points="196.033,210.085 186.192,227.171 218.967,240.706 219.734,237.598 225.235,232.444 " />
<polygon stroke="black" stroke-width="1" fill="rgb(204, 204, 204)" fill-opacity="0" points="325.809,284.831 330.892,265.781 307.058,262.669 304.346,272.533 303.499,275.617 " />
<polygon stroke="black" stroke-width="1" fill="rgb(204, 204, 204)" fill-opacity="0" points="181.130,265.937 186.253,284.977 216.230,272.523 216.122,272.108 213.393,261.655 " />
<polygon stroke="black" stroke-width="1" fill="rgb(204, 204, 204)" fill-opacity="0" points="330.871,246.065 325.748,227.025 300.661,237.447 300.945,237.708 303.954,249.233 304.056,249.623 " />
<polygon stroke="black" stroke-width="1" fill="rgb(204, 204, 204)" fill-opacity="0" points="210.085,315.969 227.170,325.809 236.900,302.250 235.951,302.015 227.610,293.112 227.597,293.098 " />
<polygon stroke="black" stroke-width="1" fill="rgb(204, 204, 204)" fill-opacity="0" points="181.109,246.221 181.130,265.937 213.393,261.655 213.153,260.824 216.191,250.802 " />
<polygon stroke="black" stroke-width="1" fill="rgb(204, 204, 204)" fill-opacity="0" points="315.872,209.960 301.916,196.034 283.166,220.522 283.578,220.613 291.536,228.675 " />
<polygon stroke="black" stroke-width="1" fill="rgb(204, 204, 204)" fill-opacity="0" points="246.220,330.892 265.936,330.872 262.880,307.837 259.618,308.780 249.508,305.715 " />
<polygon stroke="black" stroke-width="1" fill="rgb(204, 204, 204)" fill-opacity="0" points="284.831,186.193 265.781,181.110 261.375,214.849 271.811,217.718 " />
<polygon stroke="black" stroke-width="1" fill="rgb(204, 204, 204)" fill-opacity="0" points="284.976,325.749 302.041,315.873 288.177,297.845 283.563,302.644 276.101,304.386 " />
<polygon stroke="black" stroke-width="1" fill="rgb(204, 204, 204)" fill-opacity="0" points="246.064,181.130 227.025,186.253 240.945,219.760 249.487,217.530 250.848,217.175 " />
<polygon stroke="black" stroke-width="1" fill="rgb(204, 204, 204)" fill-opacity="0" points="315.968,301.917 325.809,284.831 303.499,275.617 301.127,285.219 297.994,288.155 " />
<polygon stroke="black" stroke-width="1" fill="rgb(204, 204, 204)" fill-opacity="0" points="209.960,196.129 196.033,210.085 225.235,232.444 229.175,228.555 232.427,225.345 " />
<polygon stroke="black" stroke-width="1" fill="rgb(204, 204, 204)" fill-opacity="0" points="186.192,227.171 181.109,246.221 216.191,250.802 216.844,248.428 218.967,240.706 " />
<polygon stroke="black" stroke-width="1" fill="rgb(204, 204, 204)" fill-opacity="0" points="330.892,265.781 330.871,246.065 304.056,249.623 307.452,261.369 307.058,262.669 " />
<polygon stroke="black" stroke-width="1" fill="rgb(204, 204, 204)" fill-opacity="0" points="196.129,302.041 210.085,315.969 227.597,293.098 219.036,284.426 " />
<polygon stroke="black" stroke-width="1" fill="rgb(204, 204, 204)" fill-opacity="0" points="186.253,284.977 196.129,302.041 219.036,284.426 218.999,284.390 216.230,272.523 " />
<polygon stroke="black" stroke-width="1" fill="rgb(204, 204, 204)" fill-opacity="0" points="325.748,227.025 315.872,209.960 291.536,228.675 292.228,229.340 300.661,237.447 " />
<polygon stroke="black" stroke-width="1" fill="rgb(204, 204, 204)" fill-opacity="0" points="227.170,325.809 246.220,330.892 249.508,305.715 248.314,305.387 236.900,302.250 " />
<polygon stroke="black" stroke-width="1" fill="rgb(204, 204, 204)" fill-opacity="0" points="301.916,196.034 284.831,186.193 271.811,217.718 272.401,217.863 283.166,220.522 " />
<polygon stroke="black" stroke-width="1" fill="rgb(204, 204, 204)" fill-opacity="0" points="265.936,330.872 284.976,325.749 276.101,304.386 272.362,305.362 262.880,307.837 " />
<polygon stroke="black" stroke-width="1" fill="rgb(204, 204, 204)" fill-opacity="0" points="265.781,181.110 246.064,181.130 250.848,217.175 260.162,214.481 261.375,214.849 " />
<polygon stroke="black" stroke-width="1" fill="rgb(204, 204, 204)" fill-opacity="0" points="302.041,315.873 315.968,301.917 297.994,288.155 292.902,293.182 288.177,297.845 " />
<polygon stroke="black" stroke-width="1" fill="rgb(204, 204, 204)" fill-opacity="0" points="227.025,186.253 209.960,196.129 232.427,225.345 236.886,220.707 240.945,219.760 " />

</svg>
