<?xml version="1.0" standalone="no"?>
<!DOCTYPE svg PUBLIC "-//W3C//DTD SVG 1.1//EN" 
  "http://www.w3.org/Graphics/SVG/1.1/DTD/svg11.dtd">
<svg width="512" height="512" viewBox="0 0 512 512"
     xmlns="http://www.w3.org/2000/svg" version="1.1">
<style>
	polygon {
		stroke: black;
		stroke-width: .3;
		fill-opacity: 0;
	}
</style>
<polygon points="393.276,387.151 451.876,374.650 419.499,307.355 " />
<polygon points="393.276,387.151 419.499,307.355 383.832,311.685 " />
<polygon points="383.832,311.685 419.499,307.355 419.540,259.740 " />
<polygon points="383.832,311.685 419.540,259.740 383.676,262.012 " />
<polygon points="319.296,390.480 393.276,387.151 383.832,311.685 " />
<polygon points="319.296,390.480 383.832,311.685 322.912,311.560 " />
<polygon points="322.912,311.560 383.832,311.685 383.676,262.012 " />
<polygon points="322.912,311.560 383.676,262.012 320.214,262.068 " />
<polygon points="397.084,178.209 383.676,262.012 419.540,259.740 " />
<polygon points="397.084,178.209 419.540,259.740 437.710,181.482 " />
<polygon points="325.520,179.834 320.214,262.068 383.676,262.012 " />
<polygon points="325.520,179.834 383.676,262.012 397.084,178.209 " />
<polygon points="493.910,508.625 451.876,374.650 393.276,387.151 " />
<polygon points="493.910,508.625 393.276,387.151 428.857,515.814 " />
<polygon points="428.857,515.814 393.276,387.151 319.296,390.480 " />
<polygon points="428.857,515.814 319.296,390.480 334.000,519.156 " />
<polygon points="388.093,114.204 397.084,178.209 437.710,181.482 " />
<polygon points="388.093,114.204 437.710,181.482 438.617,130.165 " />
<polygon points="389.144,65.772 388.093,114.204 438.617,130.165 " />
<polygon points="389.144,65.772 438.617,130.165 414.994,72.024 " />
<polygon points="389.144,65.772 414.994,72.024 404.835,6.157 " />
<polygon points="389.144,65.772 404.835,6.157 359.437,26.505 " />
<polygon points="389.144,65.772 359.437,26.505 310.922,19.846 " />
<polygon points="389.144,65.772 310.922,19.846 312.542,69.353 " />
<polygon points="388.093,114.204 389.144,65.772 312.542,69.353 " />
<polygon points="388.093,114.204 312.542,69.353 321.270,113.396 " />
<polygon points="321.270,113.396 325.520,179.834 397.084,178.209 " />
<polygon points="321.270,113.396 397.084,178.209 388.093,114.204 " />
<polygon points="294.783,311.143 294.325,391.328 319.296,390.480 " />
<polygon points="294.783,311.143 319.296,390.480 322.912,311.560 " />
<polygon points="256.179,311.335 257.554,392.911 294.325,391.328 " />
<polygon points="256.179,311.335 294.325,391.328 294.783,311.143 " />
<polygon points="292.141,263.344 294.783,311.143 322.912,311.560 " />
<polygon points="292.141,263.344 322.912,311.560 320.214,262.068 " />
<polygon points="255.402,264.913 256.179,311.335 294.783,311.143 " />
<polygon points="255.402,264.913 294.783,311.143 292.141,263.344 " />
<polygon points="296.957,180.356 292.141,263.344 320.214,262.068 " />
<polygon points="296.957,180.356 320.214,262.068 325.520,179.834 " />
<polygon points="253.866,179.958 255.402,264.913 292.141,263.344 " />
<polygon points="253.866,179.958 292.141,263.344 296.957,180.356 " />
<polygon points="334.000,519.156 319.296,390.480 294.325,391.328 " />
<polygon points="334.000,519.156 294.325,391.328 303.681,518.330 " />
<polygon points="292.903,113.869 296.957,180.356 325.520,179.834 " />
<polygon points="292.903,113.869 325.520,179.834 321.270,113.396 " />
<polygon points="252.826,115.181 253.866,179.958 296.957,180.356 " />
<polygon points="252.826,115.181 296.957,180.356 292.903,113.869 " />
<polygon points="290.293,69.565 292.903,113.869 321.270,113.396 " />
<polygon points="290.293,69.565 321.270,113.396 312.542,69.353 " />
<polygon points="252.082,69.476 252.826,115.181 292.903,113.869 " />
<polygon points="252.082,69.476 292.903,113.869 290.293,69.565 " />
<polygon points="290.537,24.503 290.293,69.565 312.542,69.353 " />
<polygon points="290.537,24.503 312.542,69.353 310.922,19.846 " />
<polygon points="251.419,29.516 252.082,69.476 290.293,69.565 " />
<polygon points="251.419,29.516 290.293,69.565 290.537,24.503 " />
<polygon points="122.963,391.842 129.768,316.076 93.956,312.989 " />
<polygon points="122.963,391.842 93.956,312.989 63.944,381.406 " />
<polygon points="129.768,316.076 128.201,266.413 92.263,265.378 " />
<polygon points="129.768,316.076 92.263,265.378 93.956,312.989 " />
<polygon points="197.026,392.591 190.664,313.832 129.768,316.076 " />
<polygon points="197.026,392.591 129.768,316.076 122.963,391.842 " />
<polygon points="190.664,313.832 191.635,264.274 128.201,266.413 " />
<polygon points="190.664,313.832 128.201,266.413 129.768,316.076 " />
<polygon points="111.916,183.082 71.405,187.744 92.263,265.378 " />
<polygon points="111.916,183.082 92.263,265.378 128.201,266.413 " />
<polygon points="183.510,182.271 111.916,183.082 128.201,266.413 " />
<polygon points="183.510,182.271 128.201,266.413 191.635,264.274 " />
<polygon points="26.754,516.795 92.045,521.687 122.963,391.842 " />
<polygon points="26.754,516.795 122.963,391.842 63.944,381.406 " />
<polygon points="92.045,521.687 187.006,521.721 197.026,392.591 " />
<polygon points="92.045,521.687 197.026,392.591 122.963,391.842 " />
<polygon points="118.734,118.774 68.751,136.452 71.405,187.744 " />
<polygon points="118.734,118.774 71.405,187.744 111.916,183.082 " />
<polygon points="116.045,70.377 90.405,77.505 68.751,136.452 " />
<polygon points="116.045,70.377 68.751,136.452 118.734,118.774 " />
<polygon points="116.045,70.377 144.428,30.107 98.338,11.289 " />
<polygon points="116.045,70.377 98.338,11.289 90.405,77.505 " />
<polygon points="116.045,70.377 192.765,71.370 192.718,21.817 " />
<polygon points="116.045,70.377 192.718,21.817 144.428,30.107 " />
<polygon points="118.734,118.774 185.525,115.702 192.765,71.370 " />
<polygon points="118.734,118.774 192.765,71.370 116.045,70.377 " />
<polygon points="185.525,115.702 118.734,118.774 111.916,183.082 " />
<polygon points="185.525,115.702 111.916,183.082 183.510,182.271 " />
<polygon points="218.770,312.434 190.664,313.832 197.026,392.591 " />
<polygon points="218.770,312.434 197.026,392.591 222.013,392.568 " />
<polygon points="256.179,311.335 218.770,312.434 222.013,392.568 " />
<polygon points="256.179,311.335 222.013,392.568 257.554,392.911 " />
<polygon points="219.735,264.578 191.635,264.274 190.664,313.832 " />
<polygon points="219.735,264.578 190.664,313.832 218.770,312.434 " />
<polygon points="255.402,264.913 219.735,264.578 218.770,312.434 " />
<polygon points="255.402,264.913 218.770,312.434 256.179,311.335 " />
<polygon points="212.073,181.826 183.510,182.271 191.635,264.274 " />
<polygon points="212.073,181.826 191.635,264.274 219.735,264.578 " />
<polygon points="253.866,179.958 212.073,181.826 219.735,264.578 " />
<polygon points="253.866,179.958 219.735,264.578 255.402,264.913 " />
<polygon points="217.288,519.839 260.479,518.080 257.554,392.911 " />
<polygon points="217.288,519.839 257.554,392.911 222.013,392.568 " />
<polygon points="187.006,521.721 217.288,519.839 222.013,392.568 " />
<polygon points="187.006,521.721 222.013,392.568 197.026,392.591 " />
<polygon points="213.912,115.214 185.525,115.702 183.510,182.271 " />
<polygon points="213.912,115.214 183.510,182.271 212.073,181.826 " />
<polygon points="252.826,115.181 213.912,115.214 212.073,181.826 " />
<polygon points="252.826,115.181 212.073,181.826 253.866,179.958 " />
<polygon points="215.017,70.831 192.765,71.370 185.525,115.702 " />
<polygon points="215.017,70.831 185.525,115.702 213.912,115.214 " />
<polygon points="252.082,69.476 215.017,70.831 213.912,115.214 " />
<polygon points="252.082,69.476 213.912,115.214 252.826,115.181 " />
<polygon points="213.256,25.789 192.718,21.817 192.765,71.370 " />
<polygon points="213.256,25.789 192.765,71.370 215.017,70.831 " />
<polygon points="251.419,29.516 213.256,25.789 215.017,70.831 " />
<polygon points="251.419,29.516 215.017,70.831 252.082,69.476 " />
<polygon points="303.681,518.330 294.325,391.328 257.554,392.911 " />
<polygon points="303.681,518.330 257.554,392.911 260.479,518.080 " />

</svg>
