<?xml version="1.0" standalone="no"?>
<!DOCTYPE svg PUBLIC "-//W3C//DTD SVG 1.1//EN" 
  "http://www.w3.org/Graphics/SVG/1.1/DTD/svg11.dtd">
<svg width="512" height="512" viewBox="0 0 512 512"
     xmlns="http://www.w3.org/2000/svg" version="1.1">
<style>
	polygon {
		stroke: black;
		stroke-width: .3;
		fill-opacity: 0;
	}
</style>
<polygon points="46.952,381.500 37.090,454.233 92.576,456.432 " />
<polygon points="46.952,381.500 92.576,456.432 94.089,378.429 " />
<polygon points="418.923,456.429 474.411,454.225 464.542,381.493 " />
<polygon points="418.923,456.429 464.542,381.493 417.405,378.426 " />
<polygon points="44.073,311.518 46.952,381.500 94.089,378.429 " />
<polygon points="44.073,311.518 94.089,378.429 91.631,306.566 " />
<polygon points="417.405,378.426 464.542,381.493 467.416,311.515 " />
<polygon points="417.405,378.426 467.416,311.515 419.860,306.565 " />
<polygon points="94.089,378.429 92.576,456.432 181.312,454.787 " />
<polygon points="94.089,378.429 181.312,454.787 171.882,375.491 " />
<polygon points="330.186,454.786 418.923,456.429 417.405,378.426 " />
<polygon points="330.186,454.786 417.405,378.426 339.614,375.490 " />
<polygon points="91.631,306.566 94.089,378.429 171.882,375.491 " />
<polygon points="91.631,306.566 171.882,375.491 173.582,302.181 " />
<polygon points="339.614,375.490 417.405,378.426 419.860,306.565 " />
<polygon points="339.614,375.490 419.860,306.565 337.912,302.182 " />
<polygon points="44.073,311.518 91.631,306.566 79.974,216.055 " />
<polygon points="44.073,311.518 79.974,216.055 28.539,235.828 " />
<polygon points="431.517,216.060 419.860,306.565 467.416,311.515 " />
<polygon points="431.517,216.060 467.416,311.515 482.947,235.832 " />
<polygon points="91.631,306.566 173.582,302.181 172.023,215.750 " />
<polygon points="91.631,306.566 172.023,215.750 79.974,216.055 " />
<polygon points="339.472,215.753 337.912,302.182 419.860,306.565 " />
<polygon points="339.472,215.753 419.860,306.565 431.517,216.060 " />
<polygon points="92.576,456.432 37.090,454.233 47.133,509.615 " />
<polygon points="92.576,456.432 47.133,509.615 104.049,508.958 " />
<polygon points="464.374,509.610 474.411,454.225 418.923,456.429 " />
<polygon points="464.374,509.610 418.923,456.429 407.453,508.957 " />
<polygon points="181.312,454.787 92.576,456.432 104.049,508.958 " />
<polygon points="181.312,454.787 104.049,508.958 191.066,511.951 " />
<polygon points="407.453,508.957 418.923,456.429 330.186,454.786 " />
<polygon points="407.453,508.957 330.186,454.786 320.434,511.951 " />
<polygon points="116.741,0.049 55.901,4.717 48.812,64.259 " />
<polygon points="116.741,0.049 48.812,64.259 110.268,61.805 " />
<polygon points="462.685,64.276 455.601,4.739 394.765,0.066 " />
<polygon points="462.685,64.276 394.765,0.066 401.233,61.818 " />
<polygon points="185.911,14.409 116.741,0.049 110.268,61.805 " />
<polygon points="185.911,14.409 110.268,61.805 181.616,65.360 " />
<polygon points="401.233,61.818 394.765,0.066 325.599,14.419 " />
<polygon points="401.233,61.818 325.599,14.419 329.889,65.367 " />
<polygon points="28.539,235.828 79.974,216.055 87.213,184.877 " />
<polygon points="28.539,235.828 87.213,184.877 23.342,204.182 " />
<polygon points="424.280,184.884 431.517,216.060 482.947,235.832 " />
<polygon points="424.280,184.884 482.947,235.832 488.145,204.190 " />
<polygon points="23.342,204.182 87.213,184.877 94.124,141.978 " />
<polygon points="23.342,204.182 94.124,141.978 24.103,145.144 " />
<polygon points="417.371,141.987 424.280,184.884 488.145,204.190 " />
<polygon points="417.371,141.987 488.145,204.190 487.387,145.157 " />
<polygon points="48.812,64.259 24.103,145.144 94.124,141.978 " />
<polygon points="48.812,64.259 94.124,141.978 110.268,61.805 " />
<polygon points="417.371,141.987 487.387,145.157 462.685,64.276 " />
<polygon points="417.371,141.987 462.685,64.276 401.233,61.818 " />
<polygon points="181.616,65.360 110.268,61.805 94.124,141.978 " />
<polygon points="181.616,65.360 94.124,141.978 175.065,133.495 " />
<polygon points="417.371,141.987 401.233,61.818 329.889,65.367 " />
<polygon points="417.371,141.987 329.889,65.367 336.435,133.500 " />
<polygon points="175.065,133.495 94.124,141.978 87.213,184.877 " />
<polygon points="175.065,133.495 87.213,184.877 172.125,166.594 " />
<polygon points="424.280,184.884 417.371,141.987 336.435,133.500 " />
<polygon points="424.280,184.884 336.435,133.500 339.373,166.598 " />
<polygon points="79.974,216.055 172.023,215.750 172.125,166.594 " />
<polygon points="79.974,216.055 172.125,166.594 87.213,184.877 " />
<polygon points="339.373,166.598 339.472,215.753 431.517,216.060 " />
<polygon points="339.373,166.598 431.517,216.060 424.280,184.884 " />
<polygon points="181.312,454.787 211.152,454.510 207.545,373.944 " />
<polygon points="181.312,454.787 207.545,373.944 171.882,375.491 " />
<polygon points="303.951,373.944 300.346,454.510 330.186,454.786 " />
<polygon points="303.951,373.944 330.186,454.786 339.614,375.490 " />
<polygon points="211.152,454.510 255.749,455.308 255.748,371.724 " />
<polygon points="211.152,454.510 255.748,371.724 207.545,373.944 " />
<polygon points="255.748,371.724 255.749,455.308 300.346,454.510 " />
<polygon points="255.748,371.724 300.346,454.510 303.951,373.944 " />
<polygon points="171.882,375.491 207.545,373.944 210.016,299.694 " />
<polygon points="171.882,375.491 210.016,299.694 173.582,302.181 " />
<polygon points="301.479,299.694 303.951,373.944 339.614,375.490 " />
<polygon points="301.479,299.694 339.614,375.490 337.912,302.182 " />
<polygon points="207.545,373.944 255.748,371.724 255.748,295.788 " />
<polygon points="207.545,373.944 255.748,295.788 210.016,299.694 " />
<polygon points="255.748,295.788 255.748,371.724 303.951,373.944 " />
<polygon points="255.748,295.788 303.951,373.944 301.479,299.694 " />
<polygon points="173.582,302.181 210.016,299.694 207.367,215.106 " />
<polygon points="173.582,302.181 207.367,215.106 172.023,215.750 " />
<polygon points="304.130,215.108 301.479,299.694 337.912,302.182 " />
<polygon points="304.130,215.108 337.912,302.182 339.472,215.753 " />
<polygon points="210.016,299.694 255.748,295.788 255.749,214.260 " />
<polygon points="210.016,299.694 255.749,214.260 207.367,215.106 " />
<polygon points="255.749,214.260 255.748,295.788 301.479,299.694 " />
<polygon points="255.749,214.260 301.479,299.694 304.130,215.108 " />
<polygon points="255.749,455.308 211.152,454.510 217.750,508.169 " />
<polygon points="255.749,455.308 217.750,508.169 255.749,506.159 " />
<polygon points="293.749,508.169 300.346,454.510 255.749,455.308 " />
<polygon points="293.749,508.169 255.749,455.308 255.749,506.159 " />
<polygon points="211.152,454.510 181.312,454.787 191.066,511.951 " />
<polygon points="211.152,454.510 191.066,511.951 217.750,508.169 " />
<polygon points="320.434,511.951 330.186,454.786 300.346,454.510 " />
<polygon points="320.434,511.951 300.346,454.510 293.749,508.169 " />
<polygon points="172.023,215.750 207.367,215.106 207.521,169.146 " />
<polygon points="172.023,215.750 207.521,169.146 172.125,166.594 " />
<polygon points="303.977,169.148 304.130,215.108 339.472,215.753 " />
<polygon points="303.977,169.148 339.472,215.753 339.373,166.598 " />
<polygon points="207.367,215.106 255.749,214.260 255.750,170.844 " />
<polygon points="207.367,215.106 255.750,170.844 207.521,169.146 " />
<polygon points="255.750,170.844 255.749,214.260 304.130,215.108 " />
<polygon points="255.750,170.844 304.130,215.108 303.977,169.148 " />
<polygon points="172.125,166.594 207.521,169.146 208.285,138.123 " />
<polygon points="172.125,166.594 208.285,138.123 175.065,133.495 " />
<polygon points="303.216,138.126 303.977,169.148 339.373,166.598 " />
<polygon points="303.216,138.126 339.373,166.598 336.435,133.500 " />
<polygon points="207.521,169.146 255.750,170.844 255.750,145.437 " />
<polygon points="207.521,169.146 255.750,145.437 208.285,138.123 " />
<polygon points="255.750,145.437 255.750,170.844 303.977,169.148 " />
<polygon points="255.750,145.437 303.977,169.148 303.216,138.126 " />
<polygon points="175.065,133.495 208.285,138.123 210.097,73.773 " />
<polygon points="175.065,133.495 210.097,73.773 181.616,65.360 " />
<polygon points="301.408,73.777 303.216,138.126 336.435,133.500 " />
<polygon points="301.408,73.777 336.435,133.500 329.889,65.367 " />
<polygon points="208.285,138.123 255.750,145.437 255.753,82.418 " />
<polygon points="208.285,138.123 255.753,82.418 210.097,73.773 " />
<polygon points="255.753,82.418 255.750,145.437 303.216,138.126 " />
<polygon points="255.753,82.418 303.216,138.126 301.408,73.777 " />
<polygon points="181.616,65.360 210.097,73.773 212.631,23.884 " />
<polygon points="181.616,65.360 212.631,23.884 185.911,14.409 " />
<polygon points="298.882,23.891 301.408,73.777 329.889,65.367 " />
<polygon points="298.882,23.891 329.889,65.367 325.599,14.419 " />
<polygon points="210.097,73.773 255.753,82.418 255.757,14.133 " />
<polygon points="210.097,73.773 255.757,14.133 212.631,23.884 " />
<polygon points="255.757,14.133 255.753,82.418 301.408,73.777 " />
<polygon points="255.757,14.133 301.408,73.777 298.882,23.891 " />

</svg>
