<?xml version="1.0" standalone="no"?>
<!DOCTYPE svg PUBLIC "-//W3C//DTD SVG 1.1//EN" 
  "http://www.w3.org/Graphics/SVG/1.1/DTD/svg11.dtd">
<svg width="512" height="512" viewBox="0 0 512 512"
     xmlns="http://www.w3.org/2000/svg" version="1.1">
<style>
	polygon {
		stroke: black;
		stroke-width: .3;
		fill-opacity: 0;
	}
</style>
<polygon points="180.525,497.470 256.000,504.217 256.000,66.941 " />
<polygon points="180.525,497.470 256.000,66.941 191.632,62.412 " />
<polygon points="180.525,497.470 191.632,62.412 117.649,38.267 " />
<polygon points="180.525,497.470 117.649,38.267 117.650,475.543 " />
<polygon points="117.650,475.543 117.649,38.267 60.059,3.892 " />
<polygon points="117.650,475.543 60.059,3.892 60.060,441.167 " />
<polygon points="60.060,441.167 60.059,3.892 5.591,22.139 " />
<polygon points="60.060,441.167 5.591,22.139 25.425,453.638 " />
<polygon points="256.000,66.941 256.000,504.217 331.475,497.470 " />
<polygon points="256.000,66.941 331.475,497.470 320.368,62.412 " />
<polygon points="331.475,497.470 394.350,475.543 394.351,38.267 " />
<polygon points="331.475,497.470 394.351,38.267 320.368,62.412 " />
<polygon points="394.350,475.543 451.940,441.167 451.941,3.891 " />
<polygon points="394.350,475.543 451.941,3.891 394.351,38.267 " />
<polygon points="451.940,441.167 486.575,453.638 506.409,22.139 " />
<polygon points="451.940,441.167 506.409,22.139 451.941,3.891 " />

</svg>
