<?xml version="1.0" standalone="no"?>
<!DOCTYPE svg PUBLIC "-//W3C//DTD SVG 1.1//EN" 
  "http://www.w3.org/Graphics/SVG/1.1/DTD/svg11.dtd">
<svg width="512" height="512" viewBox="0 0 512 512"
     xmlns="http://www.w3.org/2000/svg" version="1.1">
<style>
	polygon {
		stroke: black;
		stroke-width: .3;
		fill-opacity: 0;
	}
</style>
<polygon points="104.687,255.999 94.409,4.639 39.546,4.639 " />
<polygon points="104.687,255.999 39.546,4.639 53.251,255.999 " />
<polygon points="258.996,255.999 258.996,4.639 204.134,4.639 " />
<polygon points="258.996,255.999 204.134,4.639 207.560,255.999 " />
<polygon points="207.560,255.999 204.134,4.639 149.272,4.639 " />
<polygon points="207.560,255.999 149.272,4.639 156.124,255.999 " />
<polygon points="156.124,255.999 149.272,4.639 94.409,4.639 " />
<polygon points="156.124,255.999 94.409,4.639 104.687,255.999 " />
<polygon points="149.271,507.360 156.124,255.999 104.687,255.999 " />
<polygon points="149.271,507.360 104.687,255.999 94.408,507.360 " />
<polygon points="204.133,507.361 207.560,255.999 156.124,255.999 " />
<polygon points="204.133,507.361 156.124,255.999 149.271,507.360 " />
<polygon points="258.996,507.361 258.996,255.999 207.560,255.999 " />
<polygon points="258.996,507.361 207.560,255.999 204.133,507.361 " />
<polygon points="53.251,255.999 39.546,507.360 94.408,507.360 " />
<polygon points="53.251,255.999 94.408,507.360 104.687,255.999 " />
<polygon points="413.306,256.000 464.742,256.000 478.447,4.640 " />
<polygon points="413.306,256.000 478.447,4.640 423.584,4.639 " />
<polygon points="258.996,255.999 310.433,256.000 313.859,4.639 " />
<polygon points="258.996,255.999 313.859,4.639 258.996,4.639 " />
<polygon points="310.433,256.000 361.869,256.000 368.721,4.639 " />
<polygon points="310.433,256.000 368.721,4.639 313.859,4.639 " />
<polygon points="361.869,256.000 413.306,256.000 423.584,4.639 " />
<polygon points="361.869,256.000 423.584,4.639 368.721,4.639 " />
<polygon points="368.721,507.361 423.584,507.361 413.306,256.000 " />
<polygon points="368.721,507.361 413.306,256.000 361.869,256.000 " />
<polygon points="313.859,507.361 368.721,507.361 361.869,256.000 " />
<polygon points="313.859,507.361 361.869,256.000 310.433,256.000 " />
<polygon points="258.996,507.361 313.859,507.361 310.433,256.000 " />
<polygon points="258.996,507.361 310.433,256.000 258.996,255.999 " />
<polygon points="423.584,507.361 478.447,507.361 464.742,256.000 " />
<polygon points="423.584,507.361 464.742,256.000 413.306,256.000 " />

</svg>
