<?xml version="1.0" standalone="no"?>
<!DOCTYPE svg PUBLIC "-//W3C//DTD SVG 1.1//EN" 
  "http://www.w3.org/Graphics/SVG/1.1/DTD/svg11.dtd">
<svg width="512" height="512" viewBox="0 0 512 512"
     xmlns="http://www.w3.org/2000/svg" version="1.1">
<style>
	polygon {
		stroke: black;
		stroke-width: .3;
		fill-opacity: 0;
	}
</style>
<polygon points="408.026,508.906 487.510,504.059 482.948,429.551 " />
<polygon points="408.026,508.906 482.948,429.551 387.181,424.815 " />
<polygon points="21.755,429.364 17.085,503.864 96.807,509.485 " />
<polygon points="21.755,429.364 96.807,509.485 117.591,424.795 " />
<polygon points="346.775,510.822 408.026,508.906 387.181,424.815 " />
<polygon points="346.775,510.822 387.181,424.815 326.695,422.078 " />
<polygon points="117.591,424.795 96.807,509.485 158.062,510.829 " />
<polygon points="117.591,424.795 158.062,510.829 178.126,422.065 " />
<polygon points="289.911,511.949 346.775,510.822 326.695,422.078 " />
<polygon points="289.911,511.949 326.695,422.078 290.158,421.794 " />
<polygon points="178.126,422.065 158.062,510.829 214.923,511.949 " />
<polygon points="178.126,422.065 214.923,511.949 214.673,421.787 " />
<polygon points="252.417,510.543 289.911,511.949 290.158,421.794 " />
<polygon points="252.417,510.543 290.158,421.794 252.419,420.986 " />
<polygon points="214.673,421.787 214.923,511.949 252.417,510.543 " />
<polygon points="214.673,421.787 252.417,510.543 252.419,420.986 " />
<polygon points="387.181,424.815 482.948,429.551 486.470,357.062 " />
<polygon points="387.181,424.815 486.470,357.062 377.847,352.672 " />
<polygon points="18.332,356.888 21.755,429.364 117.591,424.795 " />
<polygon points="18.332,356.888 117.591,424.795 126.979,352.598 " />
<polygon points="326.695,422.078 387.181,424.815 377.847,352.672 " />
<polygon points="326.695,422.078 377.847,352.672 324.478,353.391 " />
<polygon points="126.979,352.598 117.591,424.795 178.126,422.065 " />
<polygon points="126.979,352.598 178.126,422.065 180.372,353.350 " />
<polygon points="290.158,421.794 326.695,422.078 324.478,353.391 " />
<polygon points="290.158,421.794 324.478,353.391 287.932,354.227 " />
<polygon points="180.372,353.350 178.126,422.065 214.673,421.787 " />
<polygon points="180.372,353.350 214.673,421.787 216.928,354.208 " />
<polygon points="252.419,420.986 290.158,421.794 287.932,354.227 " />
<polygon points="252.419,420.986 287.932,354.227 252.431,354.466 " />
<polygon points="216.928,354.208 214.673,421.787 252.419,420.986 " />
<polygon points="216.928,354.208 252.419,420.986 252.431,354.466 " />
<polygon points="377.847,352.672 486.470,357.062 488.761,287.875 " />
<polygon points="377.847,352.672 488.761,287.875 380.434,284.676 " />
<polygon points="16.090,287.699 18.332,356.888 126.979,352.598 " />
<polygon points="16.090,287.699 126.979,352.598 124.444,284.568 " />
<polygon points="324.478,353.391 377.847,352.672 380.434,284.676 " />
<polygon points="324.478,353.391 380.434,284.676 328.993,284.011 " />
<polygon points="124.444,284.568 126.979,352.598 180.372,353.350 " />
<polygon points="124.444,284.568 180.372,353.350 175.906,283.944 " />
<polygon points="287.932,354.227 324.478,353.391 328.993,284.011 " />
<polygon points="287.932,354.227 328.993,284.011 284.502,284.108 " />
<polygon points="175.906,283.944 180.372,353.350 216.928,354.208 " />
<polygon points="175.906,283.944 216.928,354.208 220.408,284.080 " />
<polygon points="252.431,354.466 287.932,354.227 284.502,284.108 " />
<polygon points="252.431,354.466 284.502,284.108 252.456,284.339 " />
<polygon points="220.408,284.080 216.928,354.208 252.431,354.466 " />
<polygon points="220.408,284.080 252.431,354.466 252.456,284.339 " />
<polygon points="380.434,284.676 488.761,287.875 491.598,207.805 " />
<polygon points="380.434,284.676 491.598,207.805 382.611,199.278 " />
<polygon points="13.292,207.629 16.090,287.699 124.444,284.568 " />
<polygon points="13.292,207.629 124.444,284.568 122.327,199.107 " />
<polygon points="328.993,284.011 380.434,284.676 382.611,199.278 " />
<polygon points="328.993,284.011 382.611,199.278 327.504,199.611 " />
<polygon points="122.327,199.107 124.444,284.568 175.906,283.944 " />
<polygon points="122.327,199.107 175.906,283.944 177.481,199.509 " />
<polygon points="284.502,284.108 328.993,284.011 327.504,199.611 " />
<polygon points="284.502,284.108 327.504,199.611 287.678,200.272 " />
<polygon points="177.481,199.509 175.906,283.944 220.408,284.080 " />
<polygon points="177.481,199.509 220.408,284.080 217.321,200.225 " />
<polygon points="252.456,284.339 284.502,284.108 287.678,200.272 " />
<polygon points="252.456,284.339 287.678,200.272 252.502,200.215 " />
<polygon points="217.321,200.225 220.408,284.080 252.456,284.339 " />
<polygon points="217.321,200.225 252.456,284.339 252.502,200.215 " />
<polygon points="382.611,199.278 491.598,207.805 504.805,152.951 " />
<polygon points="382.611,199.278 504.805,152.951 403.692,135.756 " />
<polygon points="0.051,152.862 13.292,207.629 122.327,199.107 " />
<polygon points="0.051,152.862 122.327,199.107 101.257,135.451 " />
<polygon points="327.504,199.611 382.611,199.278 403.692,135.756 " />
<polygon points="327.504,199.611 403.692,135.756 336.042,140.603 " />
<polygon points="101.257,135.451 122.327,199.107 177.481,199.509 " />
<polygon points="101.257,135.451 177.481,199.509 169.033,140.450 " />
<polygon points="287.678,200.272 327.504,199.611 336.042,140.603 " />
<polygon points="287.678,200.272 336.042,140.603 291.870,142.558 " />
<polygon points="169.033,140.450 177.481,199.509 217.321,200.225 " />
<polygon points="169.033,140.450 217.321,200.225 213.219,142.490 " />
<polygon points="252.502,200.215 287.678,200.272 291.870,142.558 " />
<polygon points="252.502,200.215 291.870,142.558 252.547,141.229 " />
<polygon points="213.219,142.490 217.321,200.225 252.502,200.215 " />
<polygon points="213.219,142.490 252.502,200.215 252.547,141.229 " />
<polygon points="403.692,135.756 504.805,152.951 463.239,96.403 " />
<polygon points="403.692,135.756 463.239,96.403 410.206,77.124 " />
<polygon points="37.155,93.739 0.051,152.862 101.257,135.451 " />
<polygon points="37.155,93.739 101.257,135.451 95.299,76.805 " />
<polygon points="336.042,140.603 403.692,135.756 410.206,77.124 " />
<polygon points="336.042,140.603 410.206,77.124 335.892,76.662 " />
<polygon points="95.299,76.805 101.257,135.451 169.033,140.450 " />
<polygon points="95.299,76.805 169.033,140.450 169.342,76.530 " />
<polygon points="291.870,142.558 336.042,140.603 335.892,76.662 " />
<polygon points="291.870,142.558 335.892,76.662 291.449,77.659 " />
<polygon points="169.342,76.530 169.033,140.450 213.219,142.490 " />
<polygon points="169.342,76.530 213.219,142.490 213.765,77.598 " />
<polygon points="252.547,141.229 291.870,142.558 291.449,77.659 " />
<polygon points="252.547,141.229 291.449,77.659 252.604,77.446 " />
<polygon points="213.765,77.598 213.219,142.490 252.547,141.229 " />
<polygon points="213.765,77.598 252.547,141.229 252.604,77.446 " />
<polygon points="410.206,77.124 389.742,6.024 327.826,2.259 " />
<polygon points="410.206,77.124 327.826,2.259 335.892,76.662 " />
<polygon points="177.489,2.140 115.533,5.841 95.299,76.805 " />
<polygon points="177.489,2.140 95.299,76.805 169.342,76.530 " />
<polygon points="291.449,77.659 335.892,76.662 327.826,2.259 " />
<polygon points="291.449,77.659 327.826,2.259 285.612,1.431 " />
<polygon points="177.489,2.140 169.342,76.530 213.765,77.598 " />
<polygon points="177.489,2.140 213.765,77.598 219.713,1.377 " />
<polygon points="252.604,77.446 291.449,77.659 285.612,1.431 " />
<polygon points="252.604,77.446 285.612,1.431 252.664,0.051 " />
<polygon points="219.713,1.377 213.765,77.598 252.604,77.446 " />
<polygon points="219.713,1.377 252.604,77.446 252.664,0.051 " />
<polygon points="410.206,77.124 463.239,96.403 464.842,23.250 " />
<polygon points="410.206,77.124 464.842,23.250 389.742,6.024 " />
<polygon points="40.372,23.492 37.155,93.739 95.299,76.805 " />
<polygon points="40.372,23.492 95.299,76.805 115.533,5.841 " />

</svg>
