<?xml version="1.0" standalone="no"?>
<!DOCTYPE svg PUBLIC "-//W3C//DTD SVG 1.1//EN" 
  "http://www.w3.org/Graphics/SVG/1.1/DTD/svg11.dtd">
<svg width="512" height="512" viewBox="0 0 512 512"
     xmlns="http://www.w3.org/2000/svg" version="1.1">
<style>
	polygon {
		stroke: black;
		stroke-width: .3;
		fill-opacity: 0;
	}
</style>
<polygon points="215.645,347.555 212.558,511.505 252.410,511.949 " />
<polygon points="215.645,347.555 252.410,511.949 252.805,350.405 " />
<polygon points="55.879,336.759 13.855,479.720 92.532,498.277 " />
<polygon points="55.879,336.759 92.532,498.277 130.460,343.276 " />
<polygon points="130.460,343.276 92.532,498.277 154.650,503.023 " />
<polygon points="130.460,343.276 154.650,503.023 174.010,345.499 " />
<polygon points="288.945,347.471 252.805,350.405 252.410,511.949 " />
<polygon points="288.945,347.471 252.410,511.949 292.583,511.390 " />
<polygon points="53.920,269.777 55.879,336.759 130.460,343.276 " />
<polygon points="53.920,269.777 130.460,343.276 135.588,269.838 " />
<polygon points="135.588,269.838 130.460,343.276 174.010,345.499 " />
<polygon points="135.588,269.838 174.010,345.499 178.921,270.419 " />
<polygon points="178.921,270.419 174.010,345.499 215.645,347.555 " />
<polygon points="178.921,270.419 215.645,347.555 218.465,271.689 " />
<polygon points="218.465,271.689 215.645,347.555 252.805,350.405 " />
<polygon points="218.465,271.689 252.805,350.405 252.774,273.384 " />
<polygon points="59.501,224.914 53.920,269.777 135.588,269.838 " />
<polygon points="59.501,224.914 135.588,269.838 139.514,209.901 " />
<polygon points="139.514,209.901 135.588,269.838 178.921,270.419 " />
<polygon points="139.514,209.901 178.921,270.419 182.543,202.181 " />
<polygon points="182.543,202.181 178.921,270.419 218.465,271.689 " />
<polygon points="182.543,202.181 218.465,271.689 219.427,197.927 " />
<polygon points="219.427,197.927 218.465,271.689 252.774,273.384 " />
<polygon points="219.427,197.927 252.774,273.384 252.794,195.122 " />
<polygon points="39.733,162.947 59.501,224.914 139.514,209.901 " />
<polygon points="39.733,162.947 139.514,209.901 104.692,134.565 " />
<polygon points="104.692,134.565 139.514,209.901 182.543,202.181 " />
<polygon points="104.692,134.565 182.543,202.181 152.389,126.876 " />
<polygon points="152.389,126.876 182.543,202.181 219.427,197.927 " />
<polygon points="152.389,126.876 219.427,197.927 204.728,122.009 " />
<polygon points="204.728,122.009 219.427,197.927 252.794,195.122 " />
<polygon points="204.728,122.009 252.794,195.122 252.778,123.411 " />
<polygon points="23.467,123.046 39.733,162.947 104.692,134.565 " />
<polygon points="23.467,123.046 104.692,134.565 97.698,90.927 " />
<polygon points="97.698,90.927 104.692,134.565 152.389,126.876 " />
<polygon points="97.698,90.927 152.389,126.876 152.048,82.702 " />
<polygon points="152.048,82.702 152.389,126.876 204.728,122.009 " />
<polygon points="152.048,82.702 204.728,122.009 198.588,83.706 " />
<polygon points="198.588,83.706 204.728,122.009 252.778,123.411 " />
<polygon points="198.588,83.706 252.778,123.411 252.736,91.124 " />
<polygon points="26.483,77.185 23.467,123.046 97.698,90.927 " />
<polygon points="26.483,77.185 97.698,90.927 97.814,50.242 " />
<polygon points="97.814,50.242 97.698,90.927 152.048,82.702 " />
<polygon points="97.814,50.242 152.048,82.702 154.306,40.740 " />
<polygon points="154.306,40.740 152.048,82.702 198.588,83.706 " />
<polygon points="154.306,40.740 198.588,83.706 191.359,42.485 " />
<polygon points="191.359,42.485 198.588,83.706 252.736,91.124 " />
<polygon points="191.359,42.485 252.736,91.124 252.831,42.449 " />
<polygon points="153.619,0.051 93.422,8.240 97.814,50.242 " />
<polygon points="153.619,0.051 97.814,50.242 154.306,40.740 " />
<polygon points="153.619,0.051 154.306,40.740 191.359,42.485 " />
<polygon points="153.619,0.051 191.359,42.485 196.420,1.258 " />
<polygon points="196.420,1.258 191.359,42.485 252.831,42.449 " />
<polygon points="196.420,1.258 252.831,42.449 252.982,11.715 " />
<polygon points="1.777,28.936 26.483,77.185 97.814,50.242 " />
<polygon points="1.777,28.936 97.814,50.242 93.422,8.240 " />
<polygon points="330.554,345.308 288.945,347.471 292.583,511.390 " />
<polygon points="330.554,345.308 292.583,511.390 350.191,502.715 " />
<polygon points="374.068,342.971 330.554,345.308 350.191,502.715 " />
<polygon points="374.068,342.971 350.191,502.715 412.276,497.776 " />
<polygon points="174.010,345.499 154.650,503.023 212.558,511.505 " />
<polygon points="174.010,345.499 212.558,511.505 215.645,347.555 " />
<polygon points="448.563,336.253 374.068,342.971 412.276,497.776 " />
<polygon points="448.563,336.253 412.276,497.776 490.866,478.998 " />
<polygon points="450.310,269.334 368.762,269.610 374.068,342.971 " />
<polygon points="450.310,269.334 374.068,342.971 448.563,336.253 " />
<polygon points="368.762,269.610 325.473,270.286 330.554,345.308 " />
<polygon points="368.762,269.610 330.554,345.308 374.068,342.971 " />
<polygon points="325.473,270.286 285.960,271.636 288.945,347.471 " />
<polygon points="325.473,270.286 288.945,347.471 330.554,345.308 " />
<polygon points="285.960,271.636 252.774,273.384 252.805,350.405 " />
<polygon points="285.960,271.636 252.805,350.405 288.945,347.471 " />
<polygon points="444.596,224.570 364.719,209.754 368.762,269.610 " />
<polygon points="444.596,224.570 368.762,269.610 450.310,269.334 " />
<polygon points="364.719,209.754 321.724,202.110 325.473,270.286 " />
<polygon points="364.719,209.754 325.473,270.286 368.762,269.610 " />
<polygon points="321.724,202.110 284.865,197.909 285.960,271.636 " />
<polygon points="321.724,202.110 285.960,271.636 325.473,270.286 " />
<polygon points="284.865,197.909 252.794,195.122 252.774,273.384 " />
<polygon points="284.865,197.909 252.774,273.384 285.960,271.636 " />
<polygon points="464.154,162.741 399.387,134.517 364.719,209.754 " />
<polygon points="464.154,162.741 364.719,209.754 444.596,224.570 " />
<polygon points="399.387,134.517 351.799,126.855 321.724,202.110 " />
<polygon points="399.387,134.517 321.724,202.110 364.719,209.754 " />
<polygon points="351.799,126.855 299.506,122.027 284.865,197.909 " />
<polygon points="351.799,126.855 284.865,197.909 321.724,202.110 " />
<polygon points="299.506,122.027 252.778,123.411 252.794,195.122 " />
<polygon points="299.506,122.027 252.794,195.122 284.865,197.909 " />
<polygon points="480.264,123.013 406.361,91.004 399.387,134.517 " />
<polygon points="480.264,123.013 399.387,134.517 464.154,162.741 " />
<polygon points="406.361,91.004 352.140,82.704 351.799,126.855 " />
<polygon points="406.361,91.004 351.799,126.855 399.387,134.517 " />
<polygon points="352.140,82.704 305.734,83.897 299.506,122.027 " />
<polygon points="352.140,82.704 299.506,122.027 351.799,126.855 " />
<polygon points="305.734,83.897 252.736,91.124 252.778,123.411 " />
<polygon points="305.734,83.897 252.778,123.411 299.506,122.027 " />
<polygon points="477.228,77.425 406.320,50.451 406.361,91.004 " />
<polygon points="477.228,77.425 406.361,91.004 480.264,123.013 " />
<polygon points="406.320,50.451 349.576,40.446 352.140,82.704 " />
<polygon points="406.320,50.451 352.140,82.704 406.361,91.004 " />
<polygon points="349.576,40.446 312.982,43.437 305.734,83.897 " />
<polygon points="349.576,40.446 305.734,83.897 352.140,82.704 " />
<polygon points="312.982,43.437 252.831,42.449 252.736,91.124 " />
<polygon points="312.982,43.437 252.736,91.124 305.734,83.897 " />
<polygon points="351.601,0.051 349.576,40.446 406.320,50.451 " />
<polygon points="351.601,0.051 406.320,50.451 410.936,8.930 " />
<polygon points="351.601,0.051 308.882,4.713 312.982,43.437 " />
<polygon points="351.601,0.051 312.982,43.437 349.576,40.446 " />
<polygon points="308.882,4.713 252.982,11.715 252.831,42.449 " />
<polygon points="308.882,4.713 252.831,42.449 312.982,43.437 " />
<polygon points="501.811,29.605 410.936,8.930 406.320,50.451 " />
<polygon points="501.811,29.605 406.320,50.451 477.228,77.425 " />

</svg>
