<?xml version="1.0" standalone="no"?>
<!DOCTYPE svg PUBLIC "-//W3C//DTD SVG 1.1//EN" 
  "http://www.w3.org/Graphics/SVG/1.1/DTD/svg11.dtd">
<svg width="512" height="512" viewBox="0 0 512 512"
     xmlns="http://www.w3.org/2000/svg" version="1.1">
<style>
	polygon {
		stroke: black;
		stroke-width: .3;
		fill-opacity: 0;
	}
</style>
<polygon points="256.013,3.555 256.009,70.178 341.306,70.183 " />
<polygon points="256.013,3.555 341.306,70.183 346.013,3.561 " />
<polygon points="166.014,3.550 170.712,70.173 256.009,70.178 " />
<polygon points="166.014,3.550 256.009,70.178 256.013,3.555 " />
<polygon points="76.015,3.544 85.414,70.167 170.712,70.173 " />
<polygon points="76.015,3.544 170.712,70.173 166.014,3.550 " />
<polygon points="249.287,509.498 255.980,509.498 255.982,491.899 " />
<polygon points="249.287,509.498 255.982,491.899 229.832,491.898 " />
<polygon points="282.131,491.901 255.982,491.899 255.980,509.498 " />
<polygon points="282.131,491.901 255.980,509.498 262.673,509.498 " />
<polygon points="308.281,491.903 282.131,491.901 262.673,509.498 " />
<polygon points="308.281,491.903 262.673,509.498 269.367,509.499 " />
<polygon points="255.984,456.702 194.899,456.698 229.832,491.898 " />
<polygon points="255.984,456.702 229.832,491.898 255.982,491.899 " />
<polygon points="317.068,456.706 255.984,456.702 255.982,491.899 " />
<polygon points="317.068,456.706 255.982,491.899 282.131,491.901 " />
<polygon points="378.152,456.710 317.068,456.706 282.131,491.901 " />
<polygon points="378.152,456.710 282.131,491.901 308.281,491.903 " />
<polygon points="255.987,405.759 165.988,405.753 194.899,456.698 " />
<polygon points="255.987,405.759 194.899,456.698 255.984,456.702 " />
<polygon points="345.986,405.765 255.987,405.759 255.984,456.702 " />
<polygon points="345.986,405.765 255.984,456.702 317.068,456.706 " />
<polygon points="435.985,405.771 345.986,405.765 317.068,456.706 " />
<polygon points="435.985,405.771 317.068,456.706 378.152,456.710 " />
<polygon points="255.991,338.954 255.987,405.759 345.986,405.765 " />
<polygon points="255.991,338.954 345.986,405.765 345.991,338.960 " />
<polygon points="165.992,338.948 165.988,405.753 255.987,405.759 " />
<polygon points="165.992,338.948 255.987,405.759 255.991,338.954 " />
<polygon points="75.993,338.942 75.988,405.747 165.988,405.753 " />
<polygon points="75.993,338.942 165.988,405.753 165.992,338.948 " />
<polygon points="345.995,272.155 345.991,338.960 435.990,338.966 " />
<polygon points="345.995,272.155 435.990,338.966 435.994,272.161 " />
<polygon points="343.076,204.976 345.995,272.155 435.994,272.161 " />
<polygon points="343.076,204.976 435.994,272.161 430.152,204.981 " />
<polygon points="346.004,136.988 343.076,204.976 430.152,204.981 " />
<polygon points="346.004,136.988 430.152,204.981 436.003,136.994 " />
<polygon points="341.306,70.183 346.004,136.988 436.003,136.994 " />
<polygon points="341.306,70.183 436.003,136.994 426.604,70.189 " />
<polygon points="346.013,3.561 341.306,70.183 426.604,70.189 " />
<polygon points="346.013,3.561 426.604,70.189 436.012,3.568 " />
<polygon points="242.594,509.497 249.287,509.498 229.832,491.898 " />
<polygon points="242.594,509.497 229.832,491.898 203.682,491.896 " />
<polygon points="194.899,456.698 133.815,456.694 203.682,491.896 " />
<polygon points="194.899,456.698 203.682,491.896 229.832,491.898 " />
<polygon points="165.988,405.753 75.988,405.747 133.815,456.694 " />
<polygon points="165.988,405.753 133.815,456.694 194.899,456.698 " />
<polygon points="345.991,338.960 345.986,405.765 435.985,405.771 " />
<polygon points="345.991,338.960 435.985,405.771 435.990,338.966 " />
<polygon points="85.414,70.167 76.006,136.970 166.006,136.976 " />
<polygon points="85.414,70.167 166.006,136.976 170.712,70.173 " />
<polygon points="170.712,70.173 166.006,136.976 256.005,136.983 " />
<polygon points="170.712,70.173 256.005,136.983 256.009,70.178 " />
<polygon points="256.009,70.178 256.005,136.983 346.004,136.988 " />
<polygon points="256.009,70.178 346.004,136.988 341.306,70.183 " />
<polygon points="76.006,136.970 81.848,204.958 168.924,204.964 " />
<polygon points="76.006,136.970 168.924,204.964 166.006,136.976 " />
<polygon points="166.006,136.976 168.924,204.964 256.000,204.970 " />
<polygon points="166.006,136.976 256.000,204.970 256.005,136.983 " />
<polygon points="256.005,136.983 256.000,204.970 343.076,204.976 " />
<polygon points="256.005,136.983 343.076,204.976 346.004,136.988 " />
<polygon points="81.848,204.958 75.998,272.137 165.997,272.143 " />
<polygon points="81.848,204.958 165.997,272.143 168.924,204.964 " />
<polygon points="168.924,204.964 165.997,272.143 255.996,272.149 " />
<polygon points="168.924,204.964 255.996,272.149 256.000,204.970 " />
<polygon points="256.000,204.970 255.996,272.149 345.995,272.155 " />
<polygon points="256.000,204.970 345.995,272.155 343.076,204.976 " />
<polygon points="75.998,272.137 75.993,338.942 165.992,338.948 " />
<polygon points="75.998,272.137 165.992,338.948 165.997,272.143 " />
<polygon points="165.997,272.143 165.992,338.948 255.991,338.954 " />
<polygon points="165.997,272.143 255.991,338.954 255.996,272.149 " />
<polygon points="255.996,272.149 255.991,338.954 345.991,338.960 " />
<polygon points="255.996,272.149 345.991,338.960 345.995,272.155 " />

</svg>
