<?xml version="1.0" standalone="no"?>
<!DOCTYPE svg PUBLIC "-//W3C//DTD SVG 1.1//EN" 
  "http://www.w3.org/Graphics/SVG/1.1/DTD/svg11.dtd">
<svg width="512" height="512" viewBox="0 0 512 512"
     xmlns="http://www.w3.org/2000/svg" version="1.1">
<style>
	polygon {
		stroke: black;
		stroke-width: .3;
		fill-opacity: 0;
	}
</style>
<polygon points="65.494,133.747 61.987,66.104 25.576,71.214 " />
<polygon points="65.494,133.747 25.576,71.214 29.550,134.418 " />
<polygon points="19.642,449.496 9.216,459.535 49.696,461.687 " />
<polygon points="19.642,449.496 49.696,461.687 56.535,448.751 " />
<polygon points="255.999,461.094 255.999,447.420 177.044,461.843 " />
<polygon points="255.999,461.094 177.044,461.843 174.619,474.734 " />
<polygon points="174.619,474.734 177.044,461.843 97.279,444.576 " />
<polygon points="174.619,474.734 97.279,444.576 91.862,457.810 " />
<polygon points="255.999,131.851 255.999,61.414 178.174,61.872 " />
<polygon points="255.999,131.851 178.174,61.872 178.934,132.110 " />
<polygon points="178.934,132.110 178.174,61.872 100.548,63.664 " />
<polygon points="178.934,132.110 100.548,63.664 102.758,133.008 " />
<polygon points="177.044,461.843 177.833,394.356 100.091,393.040 " />
<polygon points="177.044,461.843 100.091,393.040 97.279,444.576 " />
<polygon points="177.833,394.356 178.485,328.214 101.359,327.386 " />
<polygon points="177.833,394.356 101.359,327.386 100.091,393.040 " />
<polygon points="178.485,328.214 178.814,262.892 101.693,262.397 " />
<polygon points="178.485,328.214 101.693,262.397 101.359,327.386 " />
<polygon points="178.814,262.892 179.034,197.802 102.574,197.629 " />
<polygon points="178.814,262.892 102.574,197.629 101.693,262.397 " />
<polygon points="179.034,197.802 178.934,132.110 102.758,133.008 " />
<polygon points="179.034,197.802 102.758,133.008 102.574,197.629 " />
<polygon points="255.999,447.420 255.999,395.702 177.833,394.356 " />
<polygon points="255.999,447.420 177.833,394.356 177.044,461.843 " />
<polygon points="255.999,395.702 255.999,328.708 178.485,328.214 " />
<polygon points="255.999,395.702 178.485,328.214 177.833,394.356 " />
<polygon points="255.999,328.708 255.999,263.111 178.814,262.892 " />
<polygon points="255.999,328.708 178.814,262.892 178.485,328.214 " />
<polygon points="255.999,263.111 255.999,197.829 179.034,197.802 " />
<polygon points="255.999,263.111 179.034,197.802 178.814,262.892 " />
<polygon points="255.999,197.829 255.999,131.851 178.934,132.110 " />
<polygon points="255.999,197.829 178.934,132.110 179.034,197.802 " />
<polygon points="26.019,388.818 19.642,449.496 56.535,448.751 " />
<polygon points="26.019,388.818 56.535,448.751 62.289,390.970 " />
<polygon points="62.289,390.970 69.750,327.055 38.636,327.037 " />
<polygon points="62.289,390.970 38.636,327.037 26.019,388.818 " />
<polygon points="69.750,327.055 73.346,262.116 44.695,261.795 " />
<polygon points="69.750,327.055 44.695,261.795 38.636,327.037 " />
<polygon points="73.346,262.116 71.165,197.267 40.172,196.478 " />
<polygon points="73.346,262.116 40.172,196.478 44.695,261.795 " />
<polygon points="71.165,197.267 65.494,133.747 29.550,134.418 " />
<polygon points="71.165,197.267 29.550,134.418 40.172,196.478 " />
<polygon points="40.172,196.478 29.550,134.418 17.938,128.902 " />
<polygon points="40.172,196.478 17.938,128.902 27.921,194.194 " />
<polygon points="44.695,261.795 40.172,196.478 27.921,194.194 " />
<polygon points="44.695,261.795 27.921,194.194 32.216,261.647 " />
<polygon points="38.636,327.037 44.695,261.795 32.216,261.647 " />
<polygon points="38.636,327.037 32.216,261.647 26.319,328.979 " />
<polygon points="26.019,388.818 38.636,327.037 26.319,328.979 " />
<polygon points="26.019,388.818 26.319,328.979 14.256,393.887 " />
<polygon points="19.642,449.496 26.019,388.818 14.256,393.887 " />
<polygon points="19.642,449.496 14.256,393.887 9.216,459.535 " />
<polygon points="178.174,61.872 175.620,48.766 95.234,50.685 " />
<polygon points="178.174,61.872 95.234,50.685 100.548,63.664 " />
<polygon points="255.999,61.414 255.999,48.263 175.620,48.766 " />
<polygon points="255.999,61.414 175.620,48.766 178.174,61.872 " />
<polygon points="61.987,66.104 54.485,53.446 15.000,61.052 " />
<polygon points="61.987,66.104 15.000,61.052 25.576,71.214 " />
<polygon points="29.550,134.418 25.576,71.214 15.000,61.052 " />
<polygon points="29.550,134.418 15.000,61.052 17.938,128.902 " />
<polygon points="446.504,133.746 482.448,134.417 486.421,71.213 " />
<polygon points="446.504,133.746 486.421,71.213 450.010,66.103 " />
<polygon points="462.304,461.687 502.784,459.535 492.358,449.495 " />
<polygon points="462.304,461.687 492.358,449.495 455.465,448.750 " />
<polygon points="255.999,461.094 337.380,474.734 334.956,461.843 " />
<polygon points="255.999,461.094 334.956,461.843 255.999,447.420 " />
<polygon points="337.380,474.734 420.138,457.810 414.720,444.575 " />
<polygon points="337.380,474.734 414.720,444.575 334.956,461.843 " />
<polygon points="255.999,131.851 333.064,132.110 333.823,61.871 " />
<polygon points="255.999,131.851 333.823,61.871 255.999,61.414 " />
<polygon points="333.064,132.110 409.240,133.008 411.450,63.663 " />
<polygon points="333.064,132.110 411.450,63.663 333.823,61.871 " />
<polygon points="334.956,461.843 414.720,444.575 411.908,393.039 " />
<polygon points="334.956,461.843 411.908,393.039 334.166,394.356 " />
<polygon points="334.166,394.356 411.908,393.039 410.640,327.386 " />
<polygon points="334.166,394.356 410.640,327.386 333.514,328.214 " />
<polygon points="333.514,328.214 410.640,327.386 410.306,262.396 " />
<polygon points="333.514,328.214 410.306,262.396 333.184,262.891 " />
<polygon points="333.184,262.891 410.306,262.396 409.424,197.628 " />
<polygon points="333.184,262.891 409.424,197.628 332.964,197.802 " />
<polygon points="332.964,197.802 409.424,197.628 409.240,133.008 " />
<polygon points="332.964,197.802 409.240,133.008 333.064,132.110 " />
<polygon points="255.999,447.420 334.956,461.843 334.166,394.356 " />
<polygon points="255.999,447.420 334.166,394.356 255.999,395.702 " />
<polygon points="255.999,395.702 334.166,394.356 333.514,328.214 " />
<polygon points="255.999,395.702 333.514,328.214 255.999,328.708 " />
<polygon points="255.999,328.708 333.514,328.214 333.184,262.891 " />
<polygon points="255.999,328.708 333.184,262.891 255.999,263.111 " />
<polygon points="255.999,263.111 333.184,262.891 332.964,197.802 " />
<polygon points="255.999,263.111 332.964,197.802 255.999,197.829 " />
<polygon points="255.999,197.829 332.964,197.802 333.064,132.110 " />
<polygon points="255.999,197.829 333.064,132.110 255.999,131.851 " />
<polygon points="455.465,448.750 492.358,449.495 485.980,388.817 " />
<polygon points="455.465,448.750 485.980,388.817 449.710,390.970 " />
<polygon points="449.710,390.970 485.980,388.817 473.363,327.036 " />
<polygon points="449.710,390.970 473.363,327.036 442.249,327.054 " />
<polygon points="442.249,327.054 473.363,327.036 467.304,261.794 " />
<polygon points="442.249,327.054 467.304,261.794 438.653,262.115 " />
<polygon points="438.653,262.115 467.304,261.794 471.826,196.476 " />
<polygon points="438.653,262.115 471.826,196.476 440.833,197.266 " />
<polygon points="440.833,197.266 471.826,196.476 482.448,134.417 " />
<polygon points="440.833,197.266 482.448,134.417 446.504,133.746 " />
<polygon points="471.826,196.476 484.077,194.193 494.060,128.901 " />
<polygon points="471.826,196.476 494.060,128.901 482.448,134.417 " />
<polygon points="467.304,261.794 479.783,261.646 484.077,194.193 " />
<polygon points="467.304,261.794 484.077,194.193 471.826,196.476 " />
<polygon points="473.363,327.036 485.680,328.978 479.783,261.646 " />
<polygon points="473.363,327.036 479.783,261.646 467.304,261.794 " />
<polygon points="485.980,388.817 497.743,393.886 485.680,328.978 " />
<polygon points="485.980,388.817 485.680,328.978 473.363,327.036 " />
<polygon points="492.358,449.495 502.784,459.535 497.743,393.886 " />
<polygon points="492.358,449.495 497.743,393.886 485.980,388.817 " />
<polygon points="333.823,61.871 411.450,63.663 416.763,50.685 " />
<polygon points="333.823,61.871 416.763,50.685 336.378,48.765 " />
<polygon points="255.999,61.414 333.823,61.871 336.378,48.765 " />
<polygon points="255.999,61.414 336.378,48.765 255.999,48.263 " />
<polygon points="450.010,66.103 486.421,71.213 496.997,61.051 " />
<polygon points="450.010,66.103 496.997,61.051 457.512,53.445 " />
<polygon points="482.448,134.417 494.060,128.901 496.997,61.051 " />
<polygon points="482.448,134.417 496.997,61.051 486.421,71.213 " />
<polygon points="100.548,63.664 95.234,50.685 54.485,53.446 " />
<polygon points="100.548,63.664 54.485,53.446 61.987,66.104 " />
<polygon points="102.574,197.629 102.758,133.008 65.494,133.747 " />
<polygon points="102.574,197.629 65.494,133.747 71.165,197.267 " />
<polygon points="101.693,262.397 102.574,197.629 71.165,197.267 " />
<polygon points="101.693,262.397 71.165,197.267 73.346,262.116 " />
<polygon points="101.359,327.386 101.693,262.397 73.346,262.116 " />
<polygon points="101.359,327.386 73.346,262.116 69.750,327.055 " />
<polygon points="100.091,393.040 101.359,327.386 69.750,327.055 " />
<polygon points="100.091,393.040 69.750,327.055 62.289,390.970 " />
<polygon points="97.279,444.576 100.091,393.040 62.289,390.970 " />
<polygon points="97.279,444.576 62.289,390.970 56.535,448.751 " />
<polygon points="91.862,457.810 97.279,444.576 56.535,448.751 " />
<polygon points="91.862,457.810 56.535,448.751 49.696,461.687 " />
<polygon points="102.758,133.008 100.548,63.664 61.987,66.104 " />
<polygon points="102.758,133.008 61.987,66.104 65.494,133.747 " />
<polygon points="411.450,63.663 450.010,66.103 457.512,53.445 " />
<polygon points="411.450,63.663 457.512,53.445 416.763,50.685 " />
<polygon points="409.424,197.628 440.833,197.266 446.504,133.746 " />
<polygon points="409.424,197.628 446.504,133.746 409.240,133.008 " />
<polygon points="410.306,262.396 438.653,262.115 440.833,197.266 " />
<polygon points="410.306,262.396 440.833,197.266 409.424,197.628 " />
<polygon points="410.640,327.386 442.249,327.054 438.653,262.115 " />
<polygon points="410.640,327.386 438.653,262.115 410.306,262.396 " />
<polygon points="411.908,393.039 449.710,390.970 442.249,327.054 " />
<polygon points="411.908,393.039 442.249,327.054 410.640,327.386 " />
<polygon points="414.720,444.575 455.465,448.750 449.710,390.970 " />
<polygon points="414.720,444.575 449.710,390.970 411.908,393.039 " />
<polygon points="420.138,457.810 462.304,461.687 455.465,448.750 " />
<polygon points="420.138,457.810 455.465,448.750 414.720,444.575 " />
<polygon points="409.240,133.008 446.504,133.746 450.010,66.103 " />
<polygon points="409.240,133.008 450.010,66.103 411.450,63.663 " />

</svg>
