<?xml version="1.0" standalone="no"?>
<!DOCTYPE svg PUBLIC "-//W3C//DTD SVG 1.1//EN" 
  "http://www.w3.org/Graphics/SVG/1.1/DTD/svg11.dtd">
<svg width="512" height="512" viewBox="0 0 512 512"
     xmlns="http://www.w3.org/2000/svg" version="1.1">
<style>
	polygon {
		stroke: black;
		stroke-width: .3;
		fill-opacity: 0;
	}
</style>
<polygon points="174.454,328.093 94.855,328.093 94.856,504.985 " />
<polygon points="174.454,328.093 94.856,504.985 174.454,504.984 " />
<polygon points="185.887,65.209 204.950,34.194 155.847,34.194 " />
<polygon points="185.887,65.209 155.847,34.194 117.723,65.208 " />
<polygon points="180.169,108.207 185.887,65.209 117.723,65.208 " />
<polygon points="180.169,108.207 117.723,65.208 106.288,108.205 " />
<polygon points="204.950,34.194 226.711,18.687 199.370,18.687 " />
<polygon points="204.950,34.194 199.370,18.687 155.847,34.194 " />
<polygon points="226.711,18.687 244.855,4.117 235.658,5.157 " />
<polygon points="226.711,18.687 235.658,5.157 199.370,18.687 " />
<polygon points="240.382,18.687 249.454,3.597 244.855,4.117 " />
<polygon points="240.382,18.687 244.855,4.117 226.711,18.687 " />
<polygon points="229.501,34.194 240.382,18.687 226.711,18.687 " />
<polygon points="229.501,34.194 226.711,18.687 204.950,34.194 " />
<polygon points="221.563,113.441 219.970,65.210 185.887,65.209 " />
<polygon points="221.563,113.441 185.887,65.209 180.169,108.207 " />
<polygon points="219.970,65.210 229.501,34.194 204.950,34.194 " />
<polygon points="219.970,65.210 204.950,34.194 185.887,65.209 " />
<polygon points="214.254,328.093 174.454,328.093 174.454,504.984 " />
<polygon points="214.254,328.093 174.454,504.984 214.254,504.984 " />
<polygon points="254.052,328.093 214.254,328.093 214.254,504.984 " />
<polygon points="254.052,328.093 214.254,504.984 254.052,504.984 " />
<polygon points="254.052,65.208 254.052,34.194 229.501,34.194 " />
<polygon points="254.052,65.208 229.501,34.194 219.970,65.210 " />
<polygon points="254.052,101.586 254.052,65.208 219.970,65.210 " />
<polygon points="254.052,101.586 219.970,65.210 221.563,113.441 " />
<polygon points="254.052,34.194 254.052,18.687 240.382,18.687 " />
<polygon points="254.052,34.194 240.382,18.687 229.501,34.194 " />
<polygon points="254.052,18.687 254.052,3.077 249.454,3.597 " />
<polygon points="254.052,18.687 249.454,3.597 240.382,18.687 " />
<polygon points="254.052,239.649 214.254,239.646 214.254,328.093 " />
<polygon points="254.052,239.649 214.254,328.093 254.052,328.093 " />
<polygon points="214.254,239.646 174.454,239.646 174.454,328.093 " />
<polygon points="214.254,239.646 174.454,328.093 214.254,328.093 " />
<polygon points="174.454,239.646 94.855,239.646 94.855,328.093 " />
<polygon points="174.454,239.646 94.855,328.093 174.454,328.093 " />
<polygon points="174.453,195.423 94.855,195.423 94.855,239.646 " />
<polygon points="174.453,195.423 94.855,239.646 174.454,239.646 " />
<polygon points="219.048,190.154 174.453,195.423 174.454,239.646 " />
<polygon points="219.048,190.154 174.454,239.646 214.254,239.646 " />
<polygon points="254.052,202.178 219.048,190.154 214.254,239.646 " />
<polygon points="254.052,202.178 214.254,239.646 254.052,239.649 " />
<polygon points="208.232,151.175 174.450,151.201 174.453,195.423 " />
<polygon points="208.232,151.175 174.453,195.423 219.048,190.154 " />
<polygon points="174.450,151.201 94.854,151.202 94.855,195.423 " />
<polygon points="174.450,151.201 94.855,195.423 174.453,195.423 " />
<polygon points="208.232,151.175 221.563,113.441 180.169,108.207 " />
<polygon points="208.232,151.175 180.169,108.207 174.450,151.201 " />
<polygon points="106.288,108.205 94.854,151.202 174.450,151.201 " />
<polygon points="106.288,108.205 174.450,151.201 180.169,108.207 " />
<polygon points="333.650,328.093 333.651,504.984 413.249,504.985 " />
<polygon points="333.650,328.093 413.249,504.985 413.250,328.093 " />
<polygon points="322.217,65.209 390.382,65.208 352.258,34.194 " />
<polygon points="322.217,65.209 352.258,34.194 303.155,34.194 " />
<polygon points="327.935,108.206 401.816,108.204 390.382,65.208 " />
<polygon points="327.935,108.206 390.382,65.208 322.217,65.209 " />
<polygon points="303.155,34.194 352.258,34.194 308.734,18.687 " />
<polygon points="303.155,34.194 308.734,18.687 281.393,18.687 " />
<polygon points="281.393,18.687 308.734,18.687 272.446,5.157 " />
<polygon points="281.393,18.687 272.446,5.157 263.249,4.116 " />
<polygon points="267.723,18.687 281.393,18.687 263.249,4.116 " />
<polygon points="267.723,18.687 263.249,4.116 258.651,3.597 " />
<polygon points="278.604,34.194 303.155,34.194 281.393,18.687 " />
<polygon points="278.604,34.194 281.393,18.687 267.723,18.687 " />
<polygon points="286.541,113.441 327.935,108.206 322.217,65.209 " />
<polygon points="286.541,113.441 322.217,65.209 288.134,65.210 " />
<polygon points="288.134,65.210 322.217,65.209 303.155,34.194 " />
<polygon points="288.134,65.210 303.155,34.194 278.604,34.194 " />
<polygon points="293.851,328.093 293.852,504.984 333.651,504.984 " />
<polygon points="293.851,328.093 333.651,504.984 333.650,328.093 " />
<polygon points="254.052,328.093 254.052,504.984 293.852,504.984 " />
<polygon points="254.052,328.093 293.852,504.984 293.851,328.093 " />
<polygon points="254.052,65.208 288.134,65.210 278.604,34.194 " />
<polygon points="254.052,65.208 278.604,34.194 254.052,34.194 " />
<polygon points="254.052,101.586 286.541,113.441 288.134,65.210 " />
<polygon points="254.052,101.586 288.134,65.210 254.052,65.208 " />
<polygon points="254.052,34.194 278.604,34.194 267.723,18.687 " />
<polygon points="254.052,34.194 267.723,18.687 254.052,18.687 " />
<polygon points="254.052,18.687 267.723,18.687 258.651,3.597 " />
<polygon points="254.052,18.687 258.651,3.597 254.052,3.077 " />
<polygon points="254.052,239.649 254.052,328.093 293.851,328.093 " />
<polygon points="254.052,239.649 293.851,328.093 293.851,239.646 " />
<polygon points="293.851,239.646 293.851,328.093 333.650,328.093 " />
<polygon points="293.851,239.646 333.650,328.093 333.651,239.646 " />
<polygon points="333.651,239.646 333.650,328.093 413.250,328.093 " />
<polygon points="333.651,239.646 413.250,328.093 413.250,239.646 " />
<polygon points="333.651,195.423 333.651,239.646 413.250,239.646 " />
<polygon points="333.651,195.423 413.250,239.646 413.250,195.423 " />
<polygon points="289.057,190.155 293.851,239.646 333.651,239.646 " />
<polygon points="289.057,190.155 333.651,239.646 333.651,195.423 " />
<polygon points="254.052,202.178 254.052,239.649 293.851,239.646 " />
<polygon points="254.052,202.178 293.851,239.646 289.057,190.155 " />
<polygon points="299.871,151.175 289.057,190.155 333.651,195.423 " />
<polygon points="299.871,151.175 333.651,195.423 333.655,151.201 " />
<polygon points="333.655,151.201 333.651,195.423 413.250,195.423 " />
<polygon points="333.655,151.201 413.250,195.423 413.251,151.201 " />
<polygon points="299.871,151.175 333.655,151.201 327.935,108.206 " />
<polygon points="299.871,151.175 327.935,108.206 286.541,113.441 " />
<polygon points="333.655,151.201 413.251,151.201 401.816,108.204 " />
<polygon points="333.655,151.201 401.816,108.204 327.935,108.206 " />

</svg>
