<?xml version="1.0" standalone="no"?>
<!DOCTYPE svg PUBLIC "-//W3C//DTD SVG 1.1//EN" 
  "http://www.w3.org/Graphics/SVG/1.1/DTD/svg11.dtd">
<svg width="512" height="512" viewBox="0 0 512 512"
     xmlns="http://www.w3.org/2000/svg" version="1.1">
<style>
	polygon {
		stroke: black;
		stroke-width: .3;
		fill-opacity: 0;
	}
</style>
<polygon points="223.037,284.613 184.048,285.773 179.625,323.629 " />
<polygon points="223.037,284.613 179.625,323.629 220.460,323.339 " />
<polygon points="217.021,238.590 172.407,239.656 184.048,285.773 " />
<polygon points="217.021,238.590 184.048,285.773 223.037,284.613 " />
<polygon points="222.426,182.778 179.211,183.351 172.407,239.656 " />
<polygon points="222.426,182.778 172.407,239.656 217.021,238.590 " />
<polygon points="222.399,124.761 177.631,126.563 179.211,183.351 " />
<polygon points="222.399,124.761 179.211,183.351 222.426,182.778 " />
<polygon points="213.768,66.227 164.586,73.415 177.631,126.563 " />
<polygon points="213.768,66.227 177.631,126.563 222.399,124.761 " />
<polygon points="207.573,11.242 154.473,15.752 164.586,73.415 " />
<polygon points="207.573,11.242 164.586,73.415 213.768,66.227 " />
<polygon points="262.241,319.072 220.460,323.339 223.349,371.526 " />
<polygon points="262.241,319.072 223.349,371.526 261.962,367.531 " />
<polygon points="264.995,278.438 223.037,284.613 220.460,323.339 " />
<polygon points="264.995,278.438 220.460,323.339 262.241,319.072 " />
<polygon points="264.367,233.156 217.021,238.590 223.037,284.613 " />
<polygon points="264.367,233.156 223.037,284.613 264.995,278.438 " />
<polygon points="265.602,176.142 222.426,182.778 217.021,238.590 " />
<polygon points="265.602,176.142 217.021,238.590 264.367,233.156 " />
<polygon points="264.569,121.643 222.399,124.761 222.426,182.778 " />
<polygon points="264.569,121.643 222.426,182.778 265.602,176.142 " />
<polygon points="260.710,64.146 213.768,66.227 222.399,124.761 " />
<polygon points="260.710,64.146 222.399,124.761 264.569,121.643 " />
<polygon points="260.571,3.389 207.573,11.242 213.768,66.227 " />
<polygon points="260.571,3.389 213.768,66.227 260.710,64.146 " />
<polygon points="304.168,318.928 262.241,319.072 261.962,367.531 " />
<polygon points="304.168,318.928 261.962,367.531 300.755,366.188 " />
<polygon points="304.760,282.130 264.995,278.438 262.241,319.072 " />
<polygon points="304.760,282.130 262.241,319.072 304.168,318.928 " />
<polygon points="312.508,234.980 264.367,233.156 264.995,278.438 " />
<polygon points="312.508,234.980 264.995,278.438 304.760,282.130 " />
<polygon points="308.102,174.508 265.602,176.142 264.367,233.156 " />
<polygon points="308.102,174.508 264.367,233.156 312.508,234.980 " />
<polygon points="306.969,119.110 264.569,121.643 265.602,176.142 " />
<polygon points="306.969,119.110 265.602,176.142 308.102,174.508 " />
<polygon points="308.753,64.219 260.710,64.146 264.569,121.643 " />
<polygon points="308.753,64.219 264.569,121.643 306.969,119.110 " />
<polygon points="315.216,9.716 260.571,3.389 260.710,64.146 " />
<polygon points="315.216,9.716 260.710,64.146 308.753,64.219 " />
<polygon points="344.531,320.535 304.168,318.928 300.755,366.188 " />
<polygon points="344.531,320.535 300.755,366.188 339.289,365.671 " />
<polygon points="340.994,285.759 304.760,282.130 304.168,318.928 " />
<polygon points="340.994,285.759 304.168,318.928 344.531,320.535 " />
<polygon points="352.058,240.471 312.508,234.980 304.760,282.130 " />
<polygon points="352.058,240.471 304.760,282.130 340.994,285.759 " />
<polygon points="347.540,177.462 308.102,174.508 312.508,234.980 " />
<polygon points="347.540,177.462 312.508,234.980 352.058,240.471 " />
<polygon points="349.087,120.762 306.969,119.110 308.102,174.508 " />
<polygon points="349.087,120.762 308.102,174.508 347.540,177.462 " />
<polygon points="357.007,70.560 308.753,64.219 306.969,119.110 " />
<polygon points="357.007,70.560 306.969,119.110 349.087,120.762 " />
<polygon points="371.962,9.914 315.216,9.716 308.753,64.219 " />
<polygon points="371.962,9.914 308.753,64.219 357.007,70.560 " />
<polygon points="383.792,319.933 344.531,320.535 339.289,365.671 " />
<polygon points="383.792,319.933 339.289,365.671 375.415,367.035 " />
<polygon points="375.470,282.614 340.994,285.759 344.531,320.535 " />
<polygon points="375.470,282.614 344.531,320.535 383.792,319.933 " />
<polygon points="391.876,237.157 352.058,240.471 340.994,285.759 " />
<polygon points="391.876,237.157 340.994,285.759 375.470,282.614 " />
<polygon points="387.520,180.199 347.540,177.462 352.058,240.471 " />
<polygon points="387.520,180.199 352.058,240.471 391.876,237.157 " />
<polygon points="389.192,126.719 349.087,120.762 347.540,177.462 " />
<polygon points="389.192,126.719 347.540,177.462 387.520,180.199 " />
<polygon points="397.440,72.394 357.007,70.560 349.087,120.762 " />
<polygon points="397.440,72.394 349.087,120.762 389.192,126.719 " />
<polygon points="424.940,11.375 371.962,9.914 357.007,70.560 " />
<polygon points="424.940,11.375 357.007,70.560 397.440,72.394 " />
<polygon points="423.590,320.321 383.792,319.933 375.415,367.035 " />
<polygon points="423.590,320.321 375.415,367.035 411.721,367.759 " />
<polygon points="413.516,281.772 375.470,282.614 383.792,319.933 " />
<polygon points="413.516,281.772 383.792,319.933 423.590,320.321 " />
<polygon points="436.147,234.559 391.876,237.157 375.470,282.614 " />
<polygon points="436.147,234.559 375.470,282.614 413.516,281.772 " />
<polygon points="430.195,179.668 387.520,180.199 391.876,237.157 " />
<polygon points="430.195,179.668 391.876,237.157 436.147,234.559 " />
<polygon points="427.424,130.847 389.192,126.719 387.520,180.199 " />
<polygon points="427.424,130.847 387.520,180.199 430.195,179.668 " />
<polygon points="442.156,73.349 397.440,72.394 389.192,126.719 " />
<polygon points="442.156,73.349 389.192,126.719 427.424,130.847 " />
<polygon points="480.568,20.322 424.940,11.375 397.440,72.394 " />
<polygon points="480.568,20.322 397.440,72.394 442.156,73.349 " />
<polygon points="137.929,321.686 96.899,321.463 110.281,369.611 " />
<polygon points="137.929,321.686 110.281,369.611 147.929,370.995 " />
<polygon points="141.717,283.765 110.158,281.798 96.899,321.463 " />
<polygon points="141.717,283.765 96.899,321.463 137.929,321.686 " />
<polygon points="129.569,236.296 104.251,235.367 110.158,281.798 " />
<polygon points="129.569,236.296 110.158,281.798 141.717,283.765 " />
<polygon points="132.090,184.145 94.494,180.313 104.251,235.367 " />
<polygon points="132.090,184.145 104.251,235.367 129.569,236.296 " />
<polygon points="127.357,128.790 83.906,126.630 94.494,180.313 " />
<polygon points="127.357,128.790 94.494,180.313 132.090,184.145 " />
<polygon points="117.446,70.010 70.167,65.709 83.906,126.630 " />
<polygon points="117.446,70.010 83.906,126.630 127.357,128.790 " />
<polygon points="103.070,14.107 48.254,6.674 70.167,65.709 " />
<polygon points="103.070,14.107 70.167,65.709 117.446,70.010 " />
<polygon points="186.498,382.272 147.929,370.995 138.508,472.996 " />
<polygon points="186.498,382.272 138.508,472.996 181.803,417.394 " />
<polygon points="223.349,371.526 186.498,382.272 181.803,417.394 " />
<polygon points="223.349,371.526 181.803,417.394 231.454,456.319 " />
<polygon points="261.962,367.531 223.349,371.526 231.454,456.319 " />
<polygon points="261.962,367.531 231.454,456.319 261.341,511.431 " />
<polygon points="300.755,366.188 261.962,367.531 261.341,511.431 " />
<polygon points="300.755,366.188 261.341,511.431 303.460,449.292 " />
<polygon points="339.289,365.671 300.755,366.188 303.460,449.292 " />
<polygon points="339.289,365.671 303.460,449.292 343.369,445.935 " />
<polygon points="375.415,367.035 339.289,365.671 343.369,445.935 " />
<polygon points="375.415,367.035 343.369,445.935 383.289,471.936 " />
<polygon points="411.721,367.759 375.415,367.035 383.289,471.936 " />
<polygon points="411.721,367.759 383.289,471.936 424.025,436.300 " />
<polygon points="147.929,370.995 110.281,369.611 97.564,428.541 " />
<polygon points="147.929,370.995 97.564,428.541 138.508,472.996 " />
<polygon points="220.460,323.339 179.625,323.629 186.498,382.272 " />
<polygon points="220.460,323.339 186.498,382.272 223.349,371.526 " />
<polygon points="154.473,15.752 103.070,14.107 117.446,70.010 " />
<polygon points="154.473,15.752 117.446,70.010 164.586,73.415 " />
<polygon points="164.586,73.415 117.446,70.010 127.357,128.790 " />
<polygon points="164.586,73.415 127.357,128.790 177.631,126.563 " />
<polygon points="177.631,126.563 127.357,128.790 132.090,184.145 " />
<polygon points="177.631,126.563 132.090,184.145 179.211,183.351 " />
<polygon points="179.211,183.351 132.090,184.145 129.569,236.296 " />
<polygon points="179.211,183.351 129.569,236.296 172.407,239.656 " />
<polygon points="172.407,239.656 129.569,236.296 141.717,283.765 " />
<polygon points="172.407,239.656 141.717,283.765 184.048,285.773 " />
<polygon points="184.048,285.773 141.717,283.765 137.929,321.686 " />
<polygon points="184.048,285.773 137.929,321.686 179.625,323.629 " />
<polygon points="179.625,323.629 137.929,321.686 147.929,370.995 " />
<polygon points="179.625,323.629 147.929,370.995 186.498,382.272 " />

</svg>
