<?xml version="1.0" standalone="no"?>
<!DOCTYPE svg PUBLIC "-//W3C//DTD SVG 1.1//EN" 
  "http://www.w3.org/Graphics/SVG/1.1/DTD/svg11.dtd">
<svg width="512" height="512" viewBox="0 0 512 512"
     xmlns="http://www.w3.org/2000/svg" version="1.1">
<style>
	polygon {
		stroke: black;
		stroke-width: .3;
		fill-opacity: 0;
	}
</style>
<polygon points="234.506,73.258 234.610,29.189 228.869,34.494 " />
<polygon points="234.506,73.258 228.869,34.494 223.992,72.034 " />
<polygon points="53.856,90.019 50.113,60.272 26.649,74.065 " />
<polygon points="53.856,90.019 26.649,74.065 26.653,101.036 " />
<polygon points="71.469,459.451 67.208,463.096 93.295,479.051 " />
<polygon points="71.469,459.451 93.295,479.051 97.426,474.130 " />
<polygon points="234.610,480.836 224.871,474.569 189.476,494.358 " />
<polygon points="234.610,480.836 189.476,494.358 192.855,500.916 " />
<polygon points="192.855,500.916 189.476,494.358 171.595,500.795 " />
<polygon points="192.855,500.916 171.595,500.795 172.225,507.767 " />
<polygon points="172.225,507.767 171.595,500.795 141.379,495.363 " />
<polygon points="172.225,507.767 141.379,495.363 139.955,501.088 " />
<polygon points="139.955,501.088 141.379,495.363 119.790,491.603 " />
<polygon points="139.955,501.088 119.790,491.603 117.714,495.417 " />
<polygon points="117.714,495.417 119.790,491.603 97.426,474.130 " />
<polygon points="117.714,495.417 97.426,474.130 93.295,479.051 " />
<polygon points="223.992,72.034 228.869,34.494 191.935,28.682 " />
<polygon points="223.992,72.034 191.935,28.682 191.600,72.709 " />
<polygon points="191.600,72.709 191.935,28.682 163.478,11.134 " />
<polygon points="191.600,72.709 163.478,11.134 160.171,74.812 " />
<polygon points="160.171,74.812 163.478,11.134 114.586,33.437 " />
<polygon points="160.171,74.812 114.586,33.437 126.333,77.024 " />
<polygon points="126.333,77.024 114.586,33.437 81.173,26.109 " />
<polygon points="126.333,77.024 81.173,26.109 90.825,83.124 " />
<polygon points="90.825,83.124 81.173,26.109 50.113,60.272 " />
<polygon points="90.825,83.124 50.113,60.272 53.856,90.019 " />
<polygon points="119.790,491.603 120.589,404.451 98.503,398.082 " />
<polygon points="119.790,491.603 98.503,398.082 97.426,474.130 " />
<polygon points="120.589,404.451 128.961,322.425 88.618,326.069 " />
<polygon points="120.589,404.451 88.618,326.069 98.503,398.082 " />
<polygon points="128.961,322.425 123.965,261.513 83.319,267.720 " />
<polygon points="128.961,322.425 83.319,267.720 88.618,326.069 " />
<polygon points="123.965,261.513 110.380,203.369 74.119,209.060 " />
<polygon points="123.965,261.513 74.119,209.060 83.319,267.720 " />
<polygon points="110.380,203.369 101.583,144.020 66.850,150.989 " />
<polygon points="110.380,203.369 66.850,150.989 74.119,209.060 " />
<polygon points="101.583,144.020 90.825,83.124 53.856,90.019 " />
<polygon points="101.583,144.020 53.856,90.019 66.850,150.989 " />
<polygon points="141.379,495.363 145.047,410.451 120.589,404.451 " />
<polygon points="141.379,495.363 120.589,404.451 119.790,491.603 " />
<polygon points="145.047,410.451 154.814,330.680 128.961,322.425 " />
<polygon points="145.047,410.451 128.961,322.425 120.589,404.451 " />
<polygon points="154.814,330.680 161.058,261.397 123.965,261.513 " />
<polygon points="154.814,330.680 123.965,261.513 128.961,322.425 " />
<polygon points="161.058,261.397 139.307,202.934 110.380,203.369 " />
<polygon points="161.058,261.397 110.380,203.369 123.965,261.513 " />
<polygon points="139.307,202.934 134.477,138.492 101.583,144.020 " />
<polygon points="139.307,202.934 101.583,144.020 110.380,203.369 " />
<polygon points="134.477,138.492 126.333,77.024 90.825,83.124 " />
<polygon points="134.477,138.492 90.825,83.124 101.583,144.020 " />
<polygon points="171.595,500.795 166.954,416.167 145.047,410.451 " />
<polygon points="171.595,500.795 145.047,410.451 141.379,495.363 " />
<polygon points="166.954,416.167 161.768,343.618 154.814,330.680 " />
<polygon points="166.954,416.167 154.814,330.680 145.047,410.451 " />
<polygon points="161.768,343.618 179.121,273.228 161.058,261.397 " />
<polygon points="161.768,343.618 161.058,261.397 154.814,330.680 " />
<polygon points="179.121,273.228 159.930,212.835 139.307,202.934 " />
<polygon points="179.121,273.228 139.307,202.934 161.058,261.397 " />
<polygon points="159.930,212.835 160.928,139.041 134.477,138.492 " />
<polygon points="159.930,212.835 134.477,138.492 139.307,202.934 " />
<polygon points="160.928,139.041 160.171,74.812 126.333,77.024 " />
<polygon points="160.928,139.041 126.333,77.024 134.477,138.492 " />
<polygon points="189.476,494.358 187.445,418.033 166.954,416.167 " />
<polygon points="189.476,494.358 166.954,416.167 171.595,500.795 " />
<polygon points="187.445,418.033 176.041,349.903 161.768,343.618 " />
<polygon points="187.445,418.033 161.768,343.618 166.954,416.167 " />
<polygon points="176.041,349.903 188.190,289.749 179.121,273.228 " />
<polygon points="176.041,349.903 179.121,273.228 161.768,343.618 " />
<polygon points="188.190,289.749 187.141,217.461 159.930,212.835 " />
<polygon points="188.190,289.749 159.930,212.835 179.121,273.228 " />
<polygon points="187.141,217.461 183.788,143.448 160.928,139.041 " />
<polygon points="187.141,217.461 160.928,139.041 159.930,212.835 " />
<polygon points="183.788,143.448 191.600,72.709 160.171,74.812 " />
<polygon points="183.788,143.448 160.171,74.812 160.928,139.041 " />
<polygon points="224.871,474.569 213.997,408.714 187.445,418.033 " />
<polygon points="224.871,474.569 187.445,418.033 189.476,494.358 " />
<polygon points="213.997,408.714 206.927,347.268 176.041,349.903 " />
<polygon points="213.997,408.714 176.041,349.903 187.445,418.033 " />
<polygon points="206.927,347.268 206.905,298.316 188.190,289.749 " />
<polygon points="206.927,347.268 188.190,289.749 176.041,349.903 " />
<polygon points="206.905,298.316 216.241,214.669 187.141,217.461 " />
<polygon points="206.905,298.316 187.141,217.461 188.190,289.749 " />
<polygon points="216.241,214.669 213.705,142.842 183.788,143.448 " />
<polygon points="216.241,214.669 183.788,143.448 187.141,217.461 " />
<polygon points="213.705,142.842 223.992,72.034 191.600,72.709 " />
<polygon points="213.705,142.842 191.600,72.709 183.788,143.448 " />
<polygon points="40.466,396.253 71.469,459.451 97.426,474.130 " />
<polygon points="40.466,396.253 97.426,474.130 98.503,398.082 " />
<polygon points="98.503,398.082 88.618,326.069 45.779,333.000 " />
<polygon points="98.503,398.082 45.779,333.000 40.466,396.253 " />
<polygon points="88.618,326.069 83.319,267.720 23.946,271.960 " />
<polygon points="88.618,326.069 23.946,271.960 45.779,333.000 " />
<polygon points="83.319,267.720 74.119,209.060 31.097,213.695 " />
<polygon points="83.319,267.720 31.097,213.695 23.946,271.960 " />
<polygon points="74.119,209.060 66.850,150.989 13.042,157.571 " />
<polygon points="74.119,209.060 13.042,157.571 31.097,213.695 " />
<polygon points="66.850,150.989 53.856,90.019 26.653,101.036 " />
<polygon points="66.850,150.989 26.653,101.036 13.042,157.571 " />
<polygon points="234.610,480.836 219.485,407.088 213.997,408.714 " />
<polygon points="234.610,480.836 213.997,408.714 224.871,474.569 " />
<polygon points="219.485,407.088 212.828,346.869 206.927,347.268 " />
<polygon points="219.485,407.088 206.927,347.268 213.997,408.714 " />
<polygon points="212.828,346.869 211.186,297.872 206.905,298.316 " />
<polygon points="212.828,346.869 206.905,298.316 206.927,347.268 " />
<polygon points="211.186,297.872 221.144,215.201 216.241,214.669 " />
<polygon points="211.186,297.872 216.241,214.669 206.905,298.316 " />
<polygon points="221.144,215.201 222.956,143.380 213.705,142.842 " />
<polygon points="221.144,215.201 213.705,142.842 216.241,214.669 " />
<polygon points="222.956,143.380 234.506,73.258 223.992,72.034 " />
<polygon points="222.956,143.380 223.992,72.034 213.705,142.842 " />
<polygon points="13.042,157.571 26.653,101.036 16.730,99.754 " />
<polygon points="13.042,157.571 16.730,99.754 5.292,157.906 " />
<polygon points="31.097,213.695 13.042,157.571 5.292,157.906 " />
<polygon points="31.097,213.695 5.292,157.906 22.000,213.971 " />
<polygon points="23.946,271.960 31.097,213.695 22.000,213.971 " />
<polygon points="23.946,271.960 22.000,213.971 15.923,272.913 " />
<polygon points="45.779,333.000 23.946,271.960 15.923,272.913 " />
<polygon points="45.779,333.000 15.923,272.913 37.405,333.740 " />
<polygon points="40.466,396.253 45.779,333.000 37.405,333.740 " />
<polygon points="40.466,396.253 37.405,333.740 33.647,397.347 " />
<polygon points="71.469,459.451 40.466,396.253 33.647,397.347 " />
<polygon points="71.469,459.451 33.647,397.347 67.208,463.096 " />
<polygon points="81.173,26.109 78.728,19.193 44.222,51.916 " />
<polygon points="81.173,26.109 44.222,51.916 50.113,60.272 " />
<polygon points="114.586,33.437 113.772,23.553 78.728,19.193 " />
<polygon points="114.586,33.437 78.728,19.193 81.173,26.109 " />
<polygon points="163.478,11.134 163.580,3.991 113.772,23.553 " />
<polygon points="163.478,11.134 113.772,23.553 114.586,33.437 " />
<polygon points="191.935,28.682 195.330,19.893 163.580,3.991 " />
<polygon points="191.935,28.682 163.580,3.991 163.478,11.134 " />
<polygon points="228.869,34.494 234.610,29.189 195.330,19.893 " />
<polygon points="228.869,34.494 195.330,19.893 191.935,28.682 " />
<polygon points="50.113,60.272 44.222,51.916 19.666,69.757 " />
<polygon points="50.113,60.272 19.666,69.757 26.649,74.065 " />
<polygon points="26.653,101.036 26.649,74.065 19.666,69.757 " />
<polygon points="26.653,101.036 19.666,69.757 16.730,99.754 " />
<polygon points="234.506,73.258 223.992,72.034 228.869,34.494 " />
<polygon points="234.506,73.258 228.869,34.494 234.610,29.189 " />
<polygon points="53.856,90.019 26.653,101.036 26.649,74.065 " />
<polygon points="53.856,90.019 26.649,74.065 50.113,60.272 " />
<polygon points="93.295,479.051 67.208,463.096 71.469,459.451 " />
<polygon points="93.295,479.051 71.469,459.451 97.426,474.130 " />
<polygon points="234.610,480.836 192.855,500.916 189.476,494.358 " />
<polygon points="234.610,480.836 189.476,494.358 224.871,474.569 " />
<polygon points="192.855,500.916 172.225,507.767 171.595,500.795 " />
<polygon points="192.855,500.916 171.595,500.795 189.476,494.358 " />
<polygon points="172.225,507.767 139.955,501.088 141.379,495.363 " />
<polygon points="172.225,507.767 141.379,495.363 171.595,500.795 " />
<polygon points="139.955,501.088 117.714,495.417 119.790,491.603 " />
<polygon points="139.955,501.088 119.790,491.603 141.379,495.363 " />
<polygon points="117.714,495.417 93.295,479.051 97.426,474.130 " />
<polygon points="117.714,495.417 97.426,474.130 119.790,491.603 " />
<polygon points="223.992,72.034 191.600,72.709 191.935,28.682 " />
<polygon points="223.992,72.034 191.935,28.682 228.869,34.494 " />
<polygon points="191.600,72.709 160.171,74.812 163.478,11.134 " />
<polygon points="191.600,72.709 163.478,11.134 191.935,28.682 " />
<polygon points="160.171,74.812 126.333,77.024 114.586,33.437 " />
<polygon points="160.171,74.812 114.586,33.437 163.478,11.134 " />
<polygon points="126.333,77.024 90.825,83.124 81.173,26.109 " />
<polygon points="126.333,77.024 81.173,26.109 114.586,33.437 " />
<polygon points="90.825,83.124 53.856,90.019 50.113,60.272 " />
<polygon points="90.825,83.124 50.113,60.272 81.173,26.109 " />
<polygon points="119.790,491.603 97.426,474.130 98.503,398.082 " />
<polygon points="119.790,491.603 98.503,398.082 120.589,404.451 " />
<polygon points="120.589,404.451 98.503,398.082 88.618,326.069 " />
<polygon points="120.589,404.451 88.618,326.069 128.961,322.425 " />
<polygon points="128.961,322.425 88.618,326.069 83.319,267.720 " />
<polygon points="128.961,322.425 83.319,267.720 123.965,261.513 " />
<polygon points="123.965,261.513 83.319,267.720 74.119,209.060 " />
<polygon points="123.965,261.513 74.119,209.060 110.380,203.369 " />
<polygon points="110.380,203.369 74.119,209.060 66.850,150.989 " />
<polygon points="110.380,203.369 66.850,150.989 101.583,144.020 " />
<polygon points="101.583,144.020 66.850,150.989 53.856,90.019 " />
<polygon points="101.583,144.020 53.856,90.019 90.825,83.124 " />
<polygon points="141.379,495.363 119.790,491.603 120.589,404.451 " />
<polygon points="141.379,495.363 120.589,404.451 145.047,410.451 " />
<polygon points="145.047,410.451 120.589,404.451 128.961,322.425 " />
<polygon points="145.047,410.451 128.961,322.425 154.814,330.680 " />
<polygon points="154.814,330.680 128.961,322.425 123.965,261.513 " />
<polygon points="154.814,330.680 123.965,261.513 161.058,261.397 " />
<polygon points="161.058,261.397 123.965,261.513 110.380,203.369 " />
<polygon points="161.058,261.397 110.380,203.369 139.307,202.934 " />
<polygon points="139.307,202.934 110.380,203.369 101.583,144.020 " />
<polygon points="139.307,202.934 101.583,144.020 134.477,138.492 " />
<polygon points="134.477,138.492 101.583,144.020 90.825,83.124 " />
<polygon points="134.477,138.492 90.825,83.124 126.333,77.024 " />
<polygon points="171.595,500.795 141.379,495.363 145.047,410.451 " />
<polygon points="171.595,500.795 145.047,410.451 166.954,416.167 " />
<polygon points="166.954,416.167 145.047,410.451 154.814,330.680 " />
<polygon points="166.954,416.167 154.814,330.680 161.768,343.618 " />
<polygon points="161.768,343.618 154.814,330.680 161.058,261.397 " />
<polygon points="161.768,343.618 161.058,261.397 179.121,273.228 " />
<polygon points="179.121,273.228 161.058,261.397 139.307,202.934 " />
<polygon points="179.121,273.228 139.307,202.934 159.930,212.835 " />
<polygon points="159.930,212.835 139.307,202.934 134.477,138.492 " />
<polygon points="159.930,212.835 134.477,138.492 160.928,139.041 " />
<polygon points="160.928,139.041 134.477,138.492 126.333,77.024 " />
<polygon points="160.928,139.041 126.333,77.024 160.171,74.812 " />
<polygon points="189.476,494.358 171.595,500.795 166.954,416.167 " />
<polygon points="189.476,494.358 166.954,416.167 187.445,418.033 " />
<polygon points="187.445,418.033 166.954,416.167 161.768,343.618 " />
<polygon points="187.445,418.033 161.768,343.618 176.041,349.903 " />
<polygon points="176.041,349.903 161.768,343.618 179.121,273.228 " />
<polygon points="176.041,349.903 179.121,273.228 188.190,289.749 " />
<polygon points="188.190,289.749 179.121,273.228 159.930,212.835 " />
<polygon points="188.190,289.749 159.930,212.835 187.141,217.461 " />
<polygon points="187.141,217.461 159.930,212.835 160.928,139.041 " />
<polygon points="187.141,217.461 160.928,139.041 183.788,143.448 " />
<polygon points="183.788,143.448 160.928,139.041 160.171,74.812 " />
<polygon points="183.788,143.448 160.171,74.812 191.600,72.709 " />
<polygon points="224.871,474.569 189.476,494.358 187.445,418.033 " />
<polygon points="224.871,474.569 187.445,418.033 213.997,408.714 " />
<polygon points="213.997,408.714 187.445,418.033 176.041,349.903 " />
<polygon points="213.997,408.714 176.041,349.903 206.927,347.268 " />
<polygon points="206.927,347.268 176.041,349.903 188.190,289.749 " />
<polygon points="206.927,347.268 188.190,289.749 206.905,298.316 " />
<polygon points="206.905,298.316 188.190,289.749 187.141,217.461 " />
<polygon points="206.905,298.316 187.141,217.461 216.241,214.669 " />
<polygon points="216.241,214.669 187.141,217.461 183.788,143.448 " />
<polygon points="216.241,214.669 183.788,143.448 213.705,142.842 " />
<polygon points="213.705,142.842 183.788,143.448 191.600,72.709 " />
<polygon points="213.705,142.842 191.600,72.709 223.992,72.034 " />
<polygon points="97.426,474.130 71.469,459.451 40.466,396.253 " />
<polygon points="97.426,474.130 40.466,396.253 98.503,398.082 " />
<polygon points="98.503,398.082 40.466,396.253 45.779,333.000 " />
<polygon points="98.503,398.082 45.779,333.000 88.618,326.069 " />
<polygon points="88.618,326.069 45.779,333.000 23.946,271.960 " />
<polygon points="88.618,326.069 23.946,271.960 83.319,267.720 " />
<polygon points="83.319,267.720 23.946,271.960 31.097,213.695 " />
<polygon points="83.319,267.720 31.097,213.695 74.119,209.060 " />
<polygon points="74.119,209.060 31.097,213.695 13.042,157.571 " />
<polygon points="74.119,209.060 13.042,157.571 66.850,150.989 " />
<polygon points="66.850,150.989 13.042,157.571 26.653,101.036 " />
<polygon points="66.850,150.989 26.653,101.036 53.856,90.019 " />
<polygon points="234.610,480.836 224.871,474.569 213.997,408.714 " />
<polygon points="234.610,480.836 213.997,408.714 219.485,407.088 " />
<polygon points="219.485,407.088 213.997,408.714 206.927,347.268 " />
<polygon points="219.485,407.088 206.927,347.268 212.828,346.869 " />
<polygon points="212.828,346.869 206.927,347.268 206.905,298.316 " />
<polygon points="212.828,346.869 206.905,298.316 211.186,297.872 " />
<polygon points="211.186,297.872 206.905,298.316 216.241,214.669 " />
<polygon points="211.186,297.872 216.241,214.669 221.144,215.201 " />
<polygon points="221.144,215.201 216.241,214.669 213.705,142.842 " />
<polygon points="221.144,215.201 213.705,142.842 222.956,143.380 " />
<polygon points="222.956,143.380 213.705,142.842 223.992,72.034 " />
<polygon points="222.956,143.380 223.992,72.034 234.506,73.258 " />
<polygon points="13.042,157.571 5.292,157.906 16.730,99.754 " />
<polygon points="13.042,157.571 16.730,99.754 26.653,101.036 " />
<polygon points="31.097,213.695 22.000,213.971 5.292,157.906 " />
<polygon points="31.097,213.695 5.292,157.906 13.042,157.571 " />
<polygon points="23.946,271.960 15.923,272.913 22.000,213.971 " />
<polygon points="23.946,271.960 22.000,213.971 31.097,213.695 " />
<polygon points="45.779,333.000 37.405,333.740 15.923,272.913 " />
<polygon points="45.779,333.000 15.923,272.913 23.946,271.960 " />
<polygon points="40.466,396.253 33.647,397.347 37.405,333.740 " />
<polygon points="40.466,396.253 37.405,333.740 45.779,333.000 " />
<polygon points="71.469,459.451 67.208,463.096 33.647,397.347 " />
<polygon points="71.469,459.451 33.647,397.347 40.466,396.253 " />
<polygon points="81.173,26.109 50.113,60.272 44.222,51.916 " />
<polygon points="81.173,26.109 44.222,51.916 78.728,19.193 " />
<polygon points="114.586,33.437 81.173,26.109 78.728,19.193 " />
<polygon points="114.586,33.437 78.728,19.193 113.772,23.553 " />
<polygon points="163.478,11.134 114.586,33.437 113.772,23.553 " />
<polygon points="163.478,11.134 113.772,23.553 163.580,3.991 " />
<polygon points="191.935,28.682 163.478,11.134 163.580,3.991 " />
<polygon points="191.935,28.682 163.580,3.991 195.330,19.893 " />
<polygon points="228.869,34.494 191.935,28.682 195.330,19.893 " />
<polygon points="228.869,34.494 195.330,19.893 234.610,29.189 " />
<polygon points="50.113,60.272 26.649,74.065 19.666,69.757 " />
<polygon points="50.113,60.272 19.666,69.757 44.222,51.916 " />
<polygon points="26.653,101.036 16.730,99.754 19.666,69.757 " />
<polygon points="26.653,101.036 19.666,69.757 26.649,74.065 " />

</svg>
