<?xml version="1.0" standalone="no"?>
<!DOCTYPE svg PUBLIC "-//W3C//DTD SVG 1.1//EN" 
  "http://www.w3.org/Graphics/SVG/1.1/DTD/svg11.dtd">
<svg width="512" height="512" viewBox="0 0 512 512"
     xmlns="http://www.w3.org/2000/svg" version="1.1">
<style>
	polygon {
		stroke: black;
		stroke-width: .3;
		fill-opacity: 0;
	}
</style>
<polygon points="435.851,384.077 456.989,466.351 497.273,457.325 " />
<polygon points="435.851,384.077 497.273,457.325 479.796,384.760 " />
<polygon points="291.845,387.739 296.336,483.104 335.241,480.197 " />
<polygon points="291.845,387.739 335.241,480.197 326.597,386.654 " />
<polygon points="362.492,386.532 375.306,477.604 415.514,472.741 " />
<polygon points="362.492,386.532 415.514,472.741 398.632,385.358 " />
<polygon points="452.446,87.767 446.638,126.312 487.647,128.415 " />
<polygon points="452.446,87.767 487.647,128.415 492.402,92.860 " />
<polygon points="437.677,182.312 433.859,229.651 480.256,228.832 " />
<polygon points="437.677,182.312 480.256,228.832 479.137,180.711 " />
<polygon points="433.859,229.651 432.096,303.612 476.638,306.956 " />
<polygon points="433.859,229.651 476.638,306.956 480.256,228.832 " />
<polygon points="432.096,303.612 435.851,384.077 479.796,384.760 " />
<polygon points="432.096,303.612 479.796,384.760 476.638,306.956 " />
<polygon points="294.608,75.152 293.224,127.424 330.431,128.392 " />
<polygon points="294.608,75.152 330.431,128.392 334.255,74.369 " />
<polygon points="291.431,183.217 290.671,229.562 324.619,229.859 " />
<polygon points="291.431,183.217 324.619,229.859 326.496,183.932 " />
<polygon points="290.671,229.562 290.603,300.884 324.445,300.832 " />
<polygon points="290.671,229.562 324.445,300.832 324.619,229.859 " />
<polygon points="290.603,300.884 291.845,387.739 326.597,386.654 " />
<polygon points="290.603,300.884 326.597,386.654 324.445,300.832 " />
<polygon points="373.399,79.154 368.948,125.999 408.245,125.203 " />
<polygon points="373.399,79.154 408.245,125.203 413.822,81.263 " />
<polygon points="362.921,182.464 360.278,229.440 396.264,229.491 " />
<polygon points="362.921,182.464 396.264,229.491 400.069,182.096 " />
<polygon points="360.278,229.440 359.668,301.623 395.144,302.347 " />
<polygon points="360.278,229.440 395.144,302.347 396.264,229.491 " />
<polygon points="359.668,301.623 362.492,386.532 398.632,385.358 " />
<polygon points="359.668,301.623 398.632,385.358 395.144,302.347 " />
<polygon points="256.983,387.878 257.287,483.993 296.336,483.104 " />
<polygon points="256.983,387.878 296.336,483.104 291.845,387.739 " />
<polygon points="255.985,72.582 256.159,127.470 293.224,127.424 " />
<polygon points="255.985,72.582 293.224,127.424 294.608,75.152 " />
<polygon points="256.336,183.450 256.482,229.716 290.671,229.562 " />
<polygon points="256.336,183.450 290.671,229.562 291.431,183.217 " />
<polygon points="256.482,229.716 256.707,300.840 290.603,300.884 " />
<polygon points="256.482,229.716 290.603,300.884 290.671,229.562 " />
<polygon points="256.707,300.840 256.983,387.878 291.845,387.739 " />
<polygon points="256.707,300.840 291.845,387.739 290.603,300.884 " />
<polygon points="326.597,386.654 335.241,480.197 375.306,477.604 " />
<polygon points="326.597,386.654 375.306,477.604 362.492,386.532 " />
<polygon points="334.255,74.369 330.431,128.392 368.948,125.999 " />
<polygon points="334.255,74.369 368.948,125.999 373.399,79.154 " />
<polygon points="326.496,183.932 324.619,229.859 360.278,229.440 " />
<polygon points="326.496,183.932 360.278,229.440 362.921,182.464 " />
<polygon points="324.619,229.859 324.445,300.832 359.668,301.623 " />
<polygon points="324.619,229.859 359.668,301.623 360.278,229.440 " />
<polygon points="324.445,300.832 326.597,386.654 362.492,386.532 " />
<polygon points="324.445,300.832 362.492,386.532 359.668,301.623 " />
<polygon points="398.632,385.358 415.514,472.741 456.989,466.351 " />
<polygon points="398.632,385.358 456.989,466.351 435.851,384.077 " />
<polygon points="413.822,81.263 408.245,125.203 446.638,126.312 " />
<polygon points="413.822,81.263 446.638,126.312 452.446,87.767 " />
<polygon points="400.069,182.096 396.264,229.491 433.859,229.651 " />
<polygon points="400.069,182.096 433.859,229.651 437.677,182.312 " />
<polygon points="396.264,229.491 395.144,302.347 432.096,303.612 " />
<polygon points="396.264,229.491 432.096,303.612 433.859,229.651 " />
<polygon points="395.144,302.347 398.632,385.358 435.851,384.077 " />
<polygon points="395.144,302.347 435.851,384.077 432.096,303.612 " />
<polygon points="492.402,92.860 499.335,60.926 458.545,57.869 " />
<polygon points="492.402,92.860 458.545,57.869 452.446,87.767 " />
<polygon points="295.944,36.212 294.608,75.152 334.255,74.369 " />
<polygon points="295.944,36.212 334.255,74.369 337.802,29.213 " />
<polygon points="377.729,44.060 373.399,79.154 413.822,81.263 " />
<polygon points="377.729,44.060 413.822,81.263 419.525,44.582 " />
<polygon points="255.846,28.792 255.985,72.582 294.608,75.152 " />
<polygon points="255.846,28.792 294.608,75.152 295.944,36.212 " />
<polygon points="337.802,29.213 334.255,74.369 373.399,79.154 " />
<polygon points="337.802,29.213 373.399,79.154 377.729,44.060 " />
<polygon points="419.525,44.582 413.822,81.263 452.446,87.767 " />
<polygon points="419.525,44.582 452.446,87.767 458.545,57.869 " />
<polygon points="446.638,126.312 437.677,182.312 479.137,180.711 " />
<polygon points="446.638,126.312 479.137,180.711 487.647,128.415 " />
<polygon points="293.224,127.424 291.431,183.217 326.496,183.932 " />
<polygon points="293.224,127.424 326.496,183.932 330.431,128.392 " />
<polygon points="368.948,125.999 362.921,182.464 400.069,182.096 " />
<polygon points="368.948,125.999 400.069,182.096 408.245,125.203 " />
<polygon points="256.159,127.470 256.336,183.450 291.431,183.217 " />
<polygon points="256.159,127.470 291.431,183.217 293.224,127.424 " />
<polygon points="330.431,128.392 326.496,183.932 362.921,182.464 " />
<polygon points="330.431,128.392 362.921,182.464 368.948,125.999 " />
<polygon points="408.245,125.203 400.069,182.096 437.677,182.312 " />
<polygon points="408.245,125.203 437.677,182.312 446.638,126.312 " />
<polygon points="419.525,44.582 421.769,29.814 377.625,29.323 " />
<polygon points="419.525,44.582 377.625,29.323 377.729,44.060 " />
<polygon points="507.586,48.303 499.335,60.926 492.402,92.860 " />
<polygon points="507.586,48.303 492.402,92.860 501.431,85.784 " />
<polygon points="476.638,306.956 485.489,310.795 489.968,227.700 " />
<polygon points="476.638,306.956 489.968,227.700 480.256,228.832 " />
<polygon points="497.273,457.325 506.391,468.068 488.233,391.110 " />
<polygon points="497.273,457.325 488.233,391.110 479.796,384.760 " />
<polygon points="458.545,57.869 463.303,44.120 421.769,29.814 " />
<polygon points="458.545,57.869 421.769,29.814 419.525,44.582 " />
<polygon points="375.306,477.604 375.954,490.775 418.791,485.547 " />
<polygon points="375.306,477.604 418.791,485.547 415.514,472.741 " />
<polygon points="296.336,483.104 291.690,496.162 333.169,493.263 " />
<polygon points="296.336,483.104 333.169,493.263 335.241,480.197 " />
<polygon points="335.241,480.197 333.169,493.263 375.954,490.775 " />
<polygon points="335.241,480.197 375.954,490.775 375.306,477.604 " />
<polygon points="337.802,29.213 335.275,13.758 290.904,21.343 " />
<polygon points="337.802,29.213 290.904,21.343 295.944,36.212 " />
<polygon points="499.335,60.926 507.586,48.303 463.303,44.120 " />
<polygon points="499.335,60.926 463.303,44.120 458.545,57.869 " />
<polygon points="479.137,180.711 488.134,176.134 496.739,120.449 " />
<polygon points="479.137,180.711 496.739,120.449 487.647,128.415 " />
<polygon points="456.989,466.351 463.098,478.684 506.391,468.068 " />
<polygon points="456.989,466.351 506.391,468.068 497.273,457.325 " />
<polygon points="479.796,384.760 488.233,391.110 485.489,310.795 " />
<polygon points="479.796,384.760 485.489,310.795 476.638,306.956 " />
<polygon points="415.514,472.741 418.791,485.547 463.098,478.684 " />
<polygon points="415.514,472.741 463.098,478.684 456.989,466.351 " />
<polygon points="377.729,44.060 377.625,29.323 335.275,13.758 " />
<polygon points="377.729,44.060 335.275,13.758 337.802,29.213 " />
<polygon points="295.944,36.212 290.904,21.343 255.799,13.757 " />
<polygon points="295.944,36.212 255.799,13.757 255.846,28.792 " />
<polygon points="257.287,483.993 257.327,496.646 291.690,496.162 " />
<polygon points="257.287,483.993 291.690,496.162 296.336,483.104 " />
<polygon points="487.647,128.415 496.739,120.449 501.431,85.784 " />
<polygon points="487.647,128.415 501.431,85.784 492.402,92.860 " />
<polygon points="480.256,228.832 489.968,227.700 488.134,176.134 " />
<polygon points="480.256,228.832 488.134,176.134 479.137,180.711 " />
<polygon points="78.094,385.210 34.154,386.171 17.137,458.844 " />
<polygon points="78.094,385.210 17.137,458.844 57.478,467.615 " />
<polygon points="222.120,387.960 187.362,387.094 179.310,480.690 " />
<polygon points="222.120,387.960 179.310,480.690 218.233,483.351 " />
<polygon points="151.468,387.200 115.320,386.255 98.992,473.742 " />
<polygon points="151.468,387.200 98.992,473.742 139.229,478.351 " />
<polygon points="59.624,89.010 19.702,94.356 24.681,129.880 " />
<polygon points="59.624,89.010 24.681,129.880 65.676,127.518 " />
<polygon points="74.991,183.460 33.522,182.121 32.708,230.248 " />
<polygon points="74.991,183.460 32.708,230.248 79.109,230.773 " />
<polygon points="79.109,230.773 32.708,230.248 36.819,308.347 " />
<polygon points="79.109,230.773 36.819,308.347 81.340,304.722 " />
<polygon points="81.340,304.722 36.819,308.347 34.154,386.171 " />
<polygon points="81.340,304.722 34.154,386.171 78.094,385.210 " />
<polygon points="217.379,75.397 177.729,74.865 181.894,128.862 " />
<polygon points="217.379,75.397 181.894,128.862 219.094,127.659 " />
<polygon points="221.240,183.439 186.180,184.376 188.348,230.290 " />
<polygon points="221.240,183.439 188.348,230.290 222.294,229.779 " />
<polygon points="222.294,229.779 188.348,230.290 188.971,301.261 " />
<polygon points="222.294,229.779 188.971,301.261 222.813,301.098 " />
<polygon points="222.813,301.098 188.971,301.261 187.362,387.094 " />
<polygon points="222.813,301.098 187.362,387.094 222.120,387.960 " />
<polygon points="138.615,79.897 98.206,82.262 104.061,126.166 " />
<polygon points="138.615,79.897 104.061,126.166 143.362,126.713 " />
<polygon points="149.746,183.138 112.597,183.006 116.702,230.375 " />
<polygon points="149.746,183.138 116.702,230.375 152.687,230.097 " />
<polygon points="152.687,230.097 116.702,230.375 118.283,303.223 " />
<polygon points="152.687,230.097 118.283,303.223 153.753,302.275 " />
<polygon points="153.753,302.275 118.283,303.223 115.320,386.255 " />
<polygon points="153.753,302.275 115.320,386.255 151.468,387.200 " />
<polygon points="256.983,387.878 222.120,387.960 218.233,483.351 " />
<polygon points="256.983,387.878 218.233,483.351 257.287,483.993 " />
<polygon points="255.985,72.582 217.379,75.397 219.094,127.659 " />
<polygon points="255.985,72.582 219.094,127.659 256.159,127.470 " />
<polygon points="256.336,183.450 221.240,183.439 222.294,229.779 " />
<polygon points="256.336,183.450 222.294,229.779 256.482,229.716 " />
<polygon points="256.482,229.716 222.294,229.779 222.813,301.098 " />
<polygon points="256.482,229.716 222.813,301.098 256.707,300.840 " />
<polygon points="256.707,300.840 222.813,301.098 222.120,387.960 " />
<polygon points="256.707,300.840 222.120,387.960 256.983,387.878 " />
<polygon points="187.362,387.094 151.468,387.200 139.229,478.351 " />
<polygon points="187.362,387.094 139.229,478.351 179.310,480.690 " />
<polygon points="177.729,74.865 138.615,79.897 143.362,126.713 " />
<polygon points="177.729,74.865 143.362,126.713 181.894,128.862 " />
<polygon points="186.180,184.376 149.746,183.138 152.687,230.097 " />
<polygon points="186.180,184.376 152.687,230.097 188.348,230.290 " />
<polygon points="188.348,230.290 152.687,230.097 153.753,302.275 " />
<polygon points="188.348,230.290 153.753,302.275 188.971,301.261 " />
<polygon points="188.971,301.261 153.753,302.275 151.468,387.200 " />
<polygon points="188.971,301.261 151.468,387.200 187.362,387.094 " />
<polygon points="115.320,386.255 78.094,385.210 57.478,467.615 " />
<polygon points="115.320,386.255 57.478,467.615 98.992,473.742 " />
<polygon points="98.206,82.262 59.624,89.010 65.676,127.518 " />
<polygon points="98.206,82.262 65.676,127.518 104.061,126.166 " />
<polygon points="112.597,183.006 74.991,183.460 79.109,230.773 " />
<polygon points="112.597,183.006 79.109,230.773 116.702,230.375 " />
<polygon points="116.702,230.375 79.109,230.773 81.340,304.722 " />
<polygon points="116.702,230.375 81.340,304.722 118.283,303.223 " />
<polygon points="118.283,303.223 81.340,304.722 78.094,385.210 " />
<polygon points="118.283,303.223 78.094,385.210 115.320,386.255 " />
<polygon points="53.336,59.151 12.566,62.467 19.702,94.356 " />
<polygon points="53.336,59.151 19.702,94.356 59.624,89.010 " />
<polygon points="215.796,36.466 173.895,29.732 177.729,74.865 " />
<polygon points="215.796,36.466 177.729,74.865 217.379,75.397 " />
<polygon points="134.064,44.831 92.272,45.618 98.206,82.262 " />
<polygon points="134.064,44.831 98.206,82.262 138.615,79.897 " />
<polygon points="255.846,28.792 215.796,36.466 217.379,75.397 " />
<polygon points="255.846,28.792 217.379,75.397 255.985,72.582 " />
<polygon points="173.895,29.732 134.064,44.831 138.615,79.897 " />
<polygon points="173.895,29.732 138.615,79.897 177.729,74.865 " />
<polygon points="92.272,45.618 53.336,59.151 59.624,89.010 " />
<polygon points="92.272,45.618 59.624,89.010 98.206,82.262 " />
<polygon points="65.676,127.518 24.681,129.880 33.522,182.121 " />
<polygon points="65.676,127.518 33.522,182.121 74.991,183.460 " />
<polygon points="219.094,127.659 181.894,128.862 186.180,184.376 " />
<polygon points="219.094,127.659 186.180,184.376 221.240,183.439 " />
<polygon points="143.362,126.713 104.061,126.166 112.597,183.006 " />
<polygon points="143.362,126.713 112.597,183.006 149.746,183.138 " />
<polygon points="256.159,127.470 219.094,127.659 221.240,183.439 " />
<polygon points="256.159,127.470 221.240,183.439 256.336,183.450 " />
<polygon points="181.894,128.862 143.362,126.713 149.746,183.138 " />
<polygon points="181.894,128.862 149.746,183.138 186.180,184.376 " />
<polygon points="104.061,126.166 65.676,127.518 74.991,183.460 " />
<polygon points="104.061,126.166 74.991,183.460 112.597,183.006 " />
<polygon points="92.272,45.618 134.064,44.831 134.074,30.093 " />
<polygon points="92.272,45.618 134.074,30.093 89.933,30.864 " />
<polygon points="19.702,94.356 12.566,62.467 4.236,49.896 " />
<polygon points="19.702,94.356 4.236,49.896 10.628,87.336 " />
<polygon points="36.819,308.347 32.708,230.248 22.989,229.177 " />
<polygon points="36.819,308.347 22.989,229.177 27.993,312.243 " />
<polygon points="17.137,458.844 34.154,386.171 25.757,392.573 " />
<polygon points="17.137,458.844 25.757,392.573 8.087,469.645 " />
<polygon points="53.336,59.151 92.272,45.618 89.933,30.864 " />
<polygon points="53.336,59.151 89.933,30.864 48.492,45.433 " />
<polygon points="139.229,478.351 98.992,473.742 95.796,486.569 " />
<polygon points="139.229,478.351 95.796,486.569 138.665,491.526 " />
<polygon points="218.233,483.351 179.310,480.690 181.465,493.743 " />
<polygon points="218.233,483.351 181.465,493.743 222.962,496.380 " />
<polygon points="179.310,480.690 139.229,478.351 138.665,491.526 " />
<polygon points="179.310,480.690 138.665,491.526 181.465,493.743 " />
<polygon points="173.895,29.732 215.796,36.466 220.743,21.564 " />
<polygon points="173.895,29.732 220.743,21.564 176.324,14.262 " />
<polygon points="12.566,62.467 53.336,59.151 48.492,45.433 " />
<polygon points="12.566,62.467 48.492,45.433 4.236,49.896 " />
<polygon points="33.522,182.121 24.681,129.880 15.538,121.971 " />
<polygon points="33.522,182.121 15.538,121.971 24.496,177.601 " />
<polygon points="57.478,467.615 17.137,458.844 8.087,469.645 " />
<polygon points="57.478,467.615 8.087,469.645 51.446,479.986 " />
<polygon points="34.154,386.171 36.819,308.347 27.993,312.243 " />
<polygon points="34.154,386.171 27.993,312.243 25.757,392.573 " />
<polygon points="98.992,473.742 57.478,467.615 51.446,479.986 " />
<polygon points="98.992,473.742 51.446,479.986 95.796,486.569 " />
<polygon points="134.064,44.831 173.895,29.732 176.324,14.262 " />
<polygon points="134.064,44.831 176.324,14.262 134.074,30.093 " />
<polygon points="215.796,36.466 255.846,28.792 255.799,13.757 " />
<polygon points="215.796,36.466 255.799,13.757 220.743,21.564 " />
<polygon points="257.287,483.993 218.233,483.351 222.962,496.380 " />
<polygon points="257.287,483.993 222.962,496.380 257.327,496.646 " />
<polygon points="24.681,129.880 19.702,94.356 10.628,87.336 " />
<polygon points="24.681,129.880 10.628,87.336 15.538,121.971 " />
<polygon points="32.708,230.248 33.522,182.121 24.496,177.601 " />
<polygon points="32.708,230.248 24.496,177.601 22.989,229.177 " />

</svg>
