<?xml version="1.0" standalone="no"?>
<!DOCTYPE svg PUBLIC "-//W3C//DTD SVG 1.1//EN" 
  "http://www.w3.org/Graphics/SVG/1.1/DTD/svg11.dtd">
<svg width="512" height="512" viewBox="0 0 512 512"
     xmlns="http://www.w3.org/2000/svg" version="1.1">
<style>
	polygon {
		stroke: black;
		stroke-width: .3;
		fill-opacity: 0;
	}
</style>
<polygon points="203.938,20.858 204.447,41.221 224.191,39.635 " />
<polygon points="203.938,20.858 224.191,39.635 224.008,22.701 " />
<polygon points="278.676,39.871 298.050,42.338 300.566,22.580 " />
<polygon points="278.676,39.871 300.566,22.580 280.691,23.474 " />
<polygon points="203.938,20.858 224.008,22.701 226.227,9.029 " />
<polygon points="203.938,20.858 226.227,9.029 204.976,4.917 " />
<polygon points="279.884,10.095 280.691,23.474 300.566,22.580 " />
<polygon points="279.884,10.095 300.566,22.580 301.131,7.047 " />
<polygon points="253.328,92.334 240.753,91.472 241.263,119.096 " />
<polygon points="253.328,92.334 241.263,119.096 253.784,119.942 " />
<polygon points="204.447,41.221 180.458,49.846 184.137,67.899 " />
<polygon points="204.447,41.221 184.137,67.899 208.881,72.688 " />
<polygon points="321.468,65.638 323.446,47.397 298.050,42.338 " />
<polygon points="321.468,65.638 298.050,42.338 297.083,71.413 " />
<polygon points="224.191,39.635 204.447,41.221 208.881,72.688 " />
<polygon points="224.191,39.635 208.881,72.688 229.843,70.025 " />
<polygon points="297.083,71.413 298.050,42.338 278.676,39.871 " />
<polygon points="297.083,71.413 278.676,39.871 276.069,69.322 " />
<polygon points="184.137,67.899 185.913,97.617 208.200,95.321 " />
<polygon points="184.137,67.899 208.200,95.321 208.881,72.688 " />
<polygon points="298.485,93.919 320.849,95.441 321.468,65.638 " />
<polygon points="298.485,93.919 321.468,65.638 297.083,71.413 " />
<polygon points="208.881,72.688 208.200,95.321 232.614,92.479 " />
<polygon points="208.881,72.688 232.614,92.479 229.843,70.025 " />
<polygon points="273.989,91.802 298.485,93.919 297.083,71.413 " />
<polygon points="273.989,91.802 297.083,71.413 276.069,69.322 " />
<polygon points="240.753,91.472 242.288,76.390 229.843,70.025 " />
<polygon points="240.753,91.472 229.843,70.025 232.614,92.479 " />
<polygon points="276.069,69.322 263.841,76.054 265.848,91.063 " />
<polygon points="276.069,69.322 265.848,91.063 273.989,91.802 " />
<polygon points="253.328,92.334 253.116,79.276 242.288,76.390 " />
<polygon points="253.328,92.334 242.288,76.390 240.753,91.472 " />
<polygon points="263.841,76.054 253.116,79.276 253.328,92.334 " />
<polygon points="263.841,76.054 253.328,92.334 265.848,91.063 " />
<polygon points="253.116,79.276 252.926,67.026 242.065,65.244 " />
<polygon points="253.116,79.276 242.065,65.244 242.288,76.390 " />
<polygon points="263.728,64.911 252.926,67.026 253.116,79.276 " />
<polygon points="263.728,64.911 253.116,79.276 263.841,76.054 " />
<polygon points="229.843,70.025 242.288,76.390 242.065,65.244 " />
<polygon points="229.843,70.025 242.065,65.244 230.689,57.796 " />
<polygon points="263.728,64.911 263.841,76.054 276.069,69.322 " />
<polygon points="263.728,64.911 276.069,69.322 274.891,57.146 " />
<polygon points="224.191,39.635 229.843,70.025 230.689,57.796 " />
<polygon points="274.891,57.146 276.069,69.322 278.676,39.871 " />
<polygon points="320.849,95.441 298.485,93.919 298.966,121.185 " />
<polygon points="320.849,95.441 298.966,121.185 321.400,117.960 " />
<polygon points="298.485,93.919 273.989,91.802 274.403,119.546 " />
<polygon points="298.485,93.919 274.403,119.546 298.966,121.185 " />
<polygon points="273.989,91.802 265.848,91.063 266.292,118.721 " />
<polygon points="273.989,91.802 266.292,118.721 274.403,119.546 " />
<polygon points="208.200,95.321 185.913,97.617 186.165,120.078 " />
<polygon points="208.200,95.321 186.165,120.078 208.469,122.450 " />
<polygon points="265.848,91.063 253.328,92.334 253.784,119.942 " />
<polygon points="265.848,91.063 253.784,119.942 266.292,118.721 " />
<polygon points="232.614,92.479 208.200,95.321 208.469,122.450 " />
<polygon points="232.614,92.479 208.469,122.450 233.134,120.347 " />
<polygon points="240.753,91.472 232.614,92.479 233.134,120.347 " />
<polygon points="240.753,91.472 233.134,120.347 241.263,119.096 " />
<polygon points="233.134,120.347 208.469,122.450 198.019,181.822 " />
<polygon points="233.134,120.347 198.019,181.822 229.647,180.815 " />
<polygon points="274.403,119.546 266.292,118.721 272.555,180.806 " />
<polygon points="274.403,119.546 272.555,180.806 283.032,180.902 " />
<polygon points="208.469,122.450 186.165,120.078 167.764,179.488 " />
<polygon points="208.469,122.450 167.764,179.488 198.019,181.822 " />
<polygon points="266.292,118.721 253.784,119.942 256.339,180.819 " />
<polygon points="266.292,118.721 256.339,180.819 272.555,180.806 " />
<polygon points="298.966,121.185 274.403,119.546 283.032,180.902 " />
<polygon points="298.966,121.185 283.032,180.902 314.731,182.558 " />
<polygon points="241.263,119.096 233.134,120.347 229.647,180.815 " />
<polygon points="241.263,119.096 229.647,180.815 240.111,180.751 " />
<polygon points="321.400,117.960 298.966,121.185 314.731,182.558 " />
<polygon points="321.400,117.960 314.731,182.558 345.430,179.457 " />
<polygon points="253.784,119.942 241.263,119.096 240.111,180.751 " />
<polygon points="253.784,119.942 240.111,180.751 256.339,180.819 " />
<polygon points="283.032,180.902 272.555,180.806 279.834,294.354 " />
<polygon points="283.032,180.902 279.834,294.354 293.224,293.722 " />
<polygon points="314.731,182.558 283.032,180.902 293.224,293.722 " />
<polygon points="314.731,182.558 293.224,293.722 333.483,295.143 " />
<polygon points="272.555,180.806 256.339,180.819 259.360,293.118 " />
<polygon points="272.555,180.806 259.360,293.118 279.834,294.354 " />
<polygon points="240.111,180.751 229.647,180.815 225.495,292.409 " />
<polygon points="240.111,180.751 225.495,292.409 238.865,293.552 " />
<polygon points="256.339,180.819 240.111,180.751 238.865,293.552 " />
<polygon points="256.339,180.819 238.865,293.552 259.360,293.118 " />
<polygon points="229.647,180.815 198.019,181.822 185.459,292.293 " />
<polygon points="229.647,180.815 185.459,292.293 225.495,292.409 " />
<polygon points="293.224,293.722 279.834,294.354 283.376,364.699 " />
<polygon points="293.224,293.722 283.376,364.699 299.167,366.090 " />
<polygon points="333.483,295.143 293.224,293.722 299.167,366.090 " />
<polygon points="333.483,295.143 299.167,366.090 346.984,369.644 " />
<polygon points="279.834,294.354 259.360,293.118 258.995,364.835 " />
<polygon points="279.834,294.354 258.995,364.835 283.376,364.699 " />
<polygon points="238.865,293.552 225.495,292.409 218.852,363.572 " />
<polygon points="238.865,293.552 218.852,363.572 234.657,363.168 " />
<polygon points="259.360,293.118 238.865,293.552 234.657,363.168 " />
<polygon points="259.360,293.118 234.657,363.168 258.995,364.835 " />
<polygon points="225.495,292.409 185.459,292.293 171.027,364.247 " />
<polygon points="225.495,292.409 171.027,364.247 218.852,363.572 " />
<polygon points="346.984,369.644 299.167,366.090 305.202,448.387 " />
<polygon points="346.984,369.644 305.202,448.387 363.573,451.736 " />
<polygon points="283.376,364.699 258.995,364.835 255.983,448.395 " />
<polygon points="283.376,364.699 255.983,448.395 285.858,446.980 " />
<polygon points="390.932,373.507 346.984,369.644 363.573,451.736 " />
<polygon points="390.932,373.507 363.573,451.736 417.238,456.016 " />
<polygon points="234.657,363.168 218.852,363.572 206.767,448.586 " />
<polygon points="234.657,363.168 206.767,448.586 226.073,447.114 " />
<polygon points="258.995,364.835 234.657,363.168 226.073,447.114 " />
<polygon points="258.995,364.835 226.073,447.114 255.983,448.395 " />
<polygon points="218.852,363.572 171.027,364.247 148.509,451.968 " />
<polygon points="218.852,363.572 148.509,451.968 206.767,448.586 " />
<polygon points="171.027,364.247 127.064,365.544 94.877,456.069 " />
<polygon points="171.027,364.247 94.877,456.069 148.509,451.968 " />
<polygon points="299.167,366.090 283.376,364.699 285.858,446.980 " />
<polygon points="299.167,366.090 285.858,446.980 305.202,448.387 " />
<polygon points="363.573,451.736 305.202,448.387 313.912,496.264 " />
<polygon points="363.573,451.736 313.912,496.264 382.461,499.749 " />
<polygon points="285.858,446.980 255.983,448.395 256.072,496.217 " />
<polygon points="285.858,446.980 256.072,496.217 291.178,494.847 " />
<polygon points="417.238,456.016 363.573,451.736 382.461,499.749 " />
<polygon points="417.238,456.016 382.461,499.749 445.591,504.054 " />
<polygon points="226.073,447.114 206.767,448.586 198.178,496.449 " />
<polygon points="226.073,447.114 198.178,496.449 220.930,494.976 " />
<polygon points="255.983,448.395 226.073,447.114 220.930,494.976 " />
<polygon points="255.983,448.395 220.930,494.976 256.072,496.217 " />
<polygon points="206.767,448.586 148.509,451.968 129.586,499.910 " />
<polygon points="206.767,448.586 129.586,499.910 198.178,496.449 " />
<polygon points="148.509,451.968 94.877,456.069 66.410,504.054 " />
<polygon points="148.509,451.968 66.410,504.054 129.586,499.910 " />
<polygon points="305.202,448.387 285.858,446.980 291.178,494.847 " />
<polygon points="305.202,448.387 291.178,494.847 313.912,496.264 " />
<polygon points="345.430,179.457 314.731,182.558 333.483,295.143 " />
<polygon points="345.430,179.457 333.483,295.143 371.678,292.412 " />
<polygon points="198.019,181.822 167.764,179.488 147.432,288.226 " />
<polygon points="198.019,181.822 147.432,288.226 185.459,292.293 " />
<polygon points="371.678,292.412 333.483,295.143 346.984,369.644 " />
<polygon points="371.678,292.412 346.984,369.644 390.932,373.507 " />
<polygon points="185.459,292.293 147.432,288.226 127.064,365.544 " />
<polygon points="185.459,292.293 127.064,365.544 171.027,364.247 " />

</svg>
