<?xml version="1.0" standalone="no"?>
<!DOCTYPE svg PUBLIC "-//W3C//DTD SVG 1.1//EN" 
  "http://www.w3.org/Graphics/SVG/1.1/DTD/svg11.dtd">
<svg width="512" height="512" viewBox="0 0 512 512"
     xmlns="http://www.w3.org/2000/svg" version="1.1">
<style>
	polygon {
		stroke: black;
		stroke-width: .3;
		fill-opacity: 0;
	}
</style>
<polygon points="24.393,381.447 68.465,401.579 127.721,358.300 " />
<polygon points="24.393,381.447 127.721,358.300 97.528,344.508 " />
<polygon points="5.833,200.803 5.832,264.141 84.812,264.141 " />
<polygon points="5.833,200.803 84.812,264.141 84.812,220.750 " />
<polygon points="444.805,401.582 488.878,381.450 415.742,344.510 " />
<polygon points="444.805,401.582 415.742,344.510 385.549,358.301 " />
<polygon points="5.832,264.141 5.832,327.479 84.812,307.532 " />
<polygon points="5.832,264.141 84.812,307.532 84.812,264.141 " />
<polygon points="431.681,433.772 444.805,401.582 385.549,358.301 " />
<polygon points="431.681,433.772 385.549,358.301 376.558,380.354 " />
<polygon points="24.394,146.834 5.833,200.803 84.812,220.750 " />
<polygon points="24.394,146.834 84.812,220.750 97.529,183.775 " />
<polygon points="256.634,447.328 351.151,447.328 321.386,389.642 " />
<polygon points="256.634,447.328 321.386,389.642 256.635,389.642 " />
<polygon points="507.438,327.482 507.439,264.144 428.459,264.143 " />
<polygon points="507.438,327.482 428.459,264.143 428.459,307.534 " />
<polygon points="68.465,401.579 81.588,433.769 136.712,380.353 " />
<polygon points="68.465,401.579 136.712,380.353 127.721,358.300 " />
<polygon points="81.588,433.769 162.119,447.327 191.884,389.642 " />
<polygon points="81.588,433.769 191.884,389.642 136.712,380.353 " />
<polygon points="162.121,80.956 81.590,94.513 136.713,147.931 " />
<polygon points="162.121,80.956 136.713,147.931 191.885,138.642 " />
<polygon points="5.832,327.479 24.393,381.447 97.528,344.508 " />
<polygon points="5.832,327.479 97.528,344.508 84.812,307.532 " />
<polygon points="68.467,126.703 24.394,146.834 97.529,183.775 " />
<polygon points="68.467,126.703 97.529,183.775 127.722,169.983 " />
<polygon points="162.119,447.327 256.634,447.328 256.635,389.642 " />
<polygon points="162.119,447.327 256.635,389.642 191.884,389.642 " />
<polygon points="488.879,146.837 444.806,126.706 385.550,169.985 " />
<polygon points="488.879,146.837 385.550,169.985 415.743,183.777 " />
<polygon points="351.153,80.958 256.637,80.957 256.636,138.643 " />
<polygon points="351.153,80.958 256.636,138.643 321.388,138.643 " />
<polygon points="507.439,264.144 507.439,200.806 428.460,220.752 " />
<polygon points="507.439,264.144 428.460,220.752 428.459,264.143 " />
<polygon points="81.590,94.513 68.467,126.703 127.722,169.983 " />
<polygon points="81.590,94.513 127.722,169.983 136.713,147.931 " />
<polygon points="488.878,381.450 507.438,327.482 428.459,307.534 " />
<polygon points="488.878,381.450 428.459,307.534 415.742,344.510 " />
<polygon points="256.637,80.957 162.121,80.956 191.885,138.642 " />
<polygon points="256.637,80.957 191.885,138.642 256.636,138.643 " />
<polygon points="351.151,447.328 431.681,433.772 376.558,380.354 " />
<polygon points="351.151,447.328 376.558,380.354 321.386,389.642 " />
<polygon points="431.683,94.515 351.153,80.958 321.388,138.643 " />
<polygon points="431.683,94.515 321.388,138.643 376.560,147.933 " />
<polygon points="507.439,200.806 488.879,146.837 415.743,183.777 " />
<polygon points="507.439,200.806 415.743,183.777 428.460,220.752 " />
<polygon points="444.806,126.706 431.683,94.515 376.560,147.933 " />
<polygon points="444.806,126.706 376.560,147.933 385.550,169.985 " />
<polygon points="376.558,380.354 385.549,358.301 256.636,264.142 " />
<polygon points="84.812,307.532 97.528,344.508 256.636,264.142 " />
<polygon points="415.742,344.510 428.459,307.534 256.636,264.142 " />
<polygon points="385.549,358.301 415.742,344.510 256.636,264.142 " />
<polygon points="256.635,389.642 321.386,389.642 256.636,264.142 " />
<polygon points="191.885,138.642 136.713,147.931 256.636,264.142 " />
<polygon points="136.713,147.931 127.722,169.983 256.636,264.142 " />
<polygon points="428.460,220.752 415.743,183.777 256.636,264.142 " />
<polygon points="136.712,380.353 191.884,389.642 256.636,264.142 " />
<polygon points="256.636,138.643 191.885,138.642 256.636,264.142 " />
<polygon points="127.721,358.300 136.712,380.353 256.636,264.142 " />
<polygon points="191.884,389.642 256.635,389.642 256.636,264.142 " />
<polygon points="376.560,147.933 321.388,138.643 256.636,264.142 " />
<polygon points="84.812,220.750 84.812,264.141 256.636,264.142 " />
<polygon points="97.528,344.508 127.721,358.300 256.636,264.142 " />
<polygon points="127.722,169.983 97.529,183.775 256.636,264.142 " />
<polygon points="321.388,138.643 256.636,138.643 256.636,264.142 " />
<polygon points="84.812,264.141 84.812,307.532 256.636,264.142 " />
<polygon points="428.459,307.534 428.459,264.143 256.636,264.142 " />
<polygon points="415.743,183.777 385.550,169.985 256.636,264.142 " />
<polygon points="385.550,169.985 376.560,147.933 256.636,264.142 " />
<polygon points="97.529,183.775 84.812,220.750 256.636,264.142 " />
<polygon points="428.459,264.143 428.460,220.752 256.636,264.142 " />
<polygon points="321.386,389.642 376.558,380.354 256.636,264.142 " />
<polygon points="488.878,381.450 415.742,344.510 385.549,358.301 " />
<polygon points="488.878,381.450 385.549,358.301 444.805,401.582 " />
<polygon points="507.439,200.806 428.460,220.752 428.459,264.143 " />
<polygon points="507.439,200.806 428.459,264.143 507.439,264.144 " />
<polygon points="68.465,401.579 127.721,358.300 97.528,344.508 " />
<polygon points="68.465,401.579 97.528,344.508 24.393,381.447 " />
<polygon points="507.439,264.144 428.459,264.143 428.459,307.534 " />
<polygon points="507.439,264.144 428.459,307.534 507.438,327.482 " />
<polygon points="81.588,433.769 136.712,380.353 127.721,358.300 " />
<polygon points="81.588,433.769 127.721,358.300 68.465,401.579 " />
<polygon points="488.879,146.837 415.743,183.777 428.460,220.752 " />
<polygon points="488.879,146.837 428.460,220.752 507.439,200.806 " />
<polygon points="256.634,447.328 256.635,389.642 191.884,389.642 " />
<polygon points="256.634,447.328 191.884,389.642 162.119,447.327 " />
<polygon points="5.832,327.479 84.812,307.532 84.812,264.141 " />
<polygon points="5.832,327.479 84.812,264.141 5.832,264.141 " />
<polygon points="444.805,401.582 385.549,358.301 376.558,380.354 " />
<polygon points="444.805,401.582 376.558,380.354 431.681,433.772 " />
<polygon points="431.681,433.772 376.558,380.354 321.386,389.642 " />
<polygon points="431.681,433.772 321.386,389.642 351.151,447.328 " />
<polygon points="351.153,80.958 321.388,138.643 376.560,147.933 " />
<polygon points="351.153,80.958 376.560,147.933 431.683,94.515 " />
<polygon points="507.438,327.482 428.459,307.534 415.742,344.510 " />
<polygon points="507.438,327.482 415.742,344.510 488.878,381.450 " />
<polygon points="444.806,126.706 385.550,169.985 415.743,183.777 " />
<polygon points="444.806,126.706 415.743,183.777 488.879,146.837 " />
<polygon points="351.151,447.328 321.386,389.642 256.635,389.642 " />
<polygon points="351.151,447.328 256.635,389.642 256.634,447.328 " />
<polygon points="24.394,146.834 97.529,183.775 127.722,169.983 " />
<polygon points="24.394,146.834 127.722,169.983 68.467,126.703 " />
<polygon points="162.121,80.956 191.885,138.642 256.636,138.643 " />
<polygon points="162.121,80.956 256.636,138.643 256.637,80.957 " />
<polygon points="5.832,264.141 84.812,264.141 84.812,220.750 " />
<polygon points="5.832,264.141 84.812,220.750 5.833,200.803 " />
<polygon points="431.683,94.515 376.560,147.933 385.550,169.985 " />
<polygon points="431.683,94.515 385.550,169.985 444.806,126.706 " />
<polygon points="24.393,381.447 97.528,344.508 84.812,307.532 " />
<polygon points="24.393,381.447 84.812,307.532 5.832,327.479 " />
<polygon points="256.637,80.957 256.636,138.643 321.388,138.643 " />
<polygon points="256.637,80.957 321.388,138.643 351.153,80.958 " />
<polygon points="162.119,447.327 191.884,389.642 136.712,380.353 " />
<polygon points="162.119,447.327 136.712,380.353 81.588,433.769 " />
<polygon points="81.590,94.513 136.713,147.931 191.885,138.642 " />
<polygon points="81.590,94.513 191.885,138.642 162.121,80.956 " />
<polygon points="5.833,200.803 84.812,220.750 97.529,183.775 " />
<polygon points="5.833,200.803 97.529,183.775 24.394,146.834 " />
<polygon points="68.467,126.703 127.722,169.983 136.713,147.931 " />
<polygon points="68.467,126.703 136.713,147.931 81.590,94.513 " />
<polygon points="136.712,380.353 256.636,264.142 127.721,358.300 " />
<polygon points="428.459,307.534 256.636,264.142 415.742,344.510 " />
<polygon points="97.528,344.508 256.636,264.142 84.812,307.532 " />
<polygon points="127.721,358.300 256.636,264.142 97.528,344.508 " />
<polygon points="256.635,389.642 256.636,264.142 191.884,389.642 " />
<polygon points="321.388,138.643 256.636,264.142 376.560,147.933 " />
<polygon points="376.560,147.933 256.636,264.142 385.550,169.985 " />
<polygon points="84.812,220.750 256.636,264.142 97.529,183.775 " />
<polygon points="376.558,380.354 256.636,264.142 321.386,389.642 " />
<polygon points="256.636,138.643 256.636,264.142 321.388,138.643 " />
<polygon points="385.549,358.301 256.636,264.142 376.558,380.354 " />
<polygon points="321.386,389.642 256.636,264.142 256.635,389.642 " />
<polygon points="136.713,147.931 256.636,264.142 191.885,138.642 " />
<polygon points="428.460,220.752 256.636,264.142 428.459,264.143 " />
<polygon points="415.742,344.510 256.636,264.142 385.549,358.301 " />
<polygon points="385.550,169.985 256.636,264.142 415.743,183.777 " />
<polygon points="191.885,138.642 256.636,264.142 256.636,138.643 " />
<polygon points="428.459,264.143 256.636,264.142 428.459,307.534 " />
<polygon points="84.812,307.532 256.636,264.142 84.812,264.141 " />
<polygon points="97.529,183.775 256.636,264.142 127.722,169.983 " />
<polygon points="127.722,169.983 256.636,264.142 136.713,147.931 " />
<polygon points="415.743,183.777 256.636,264.142 428.460,220.752 " />
<polygon points="84.812,264.141 256.636,264.142 84.812,220.750 " />
<polygon points="191.884,389.642 256.636,264.142 136.712,380.353 " />

</svg>
